<?xml version="1.0" encoding="utf-8" standalone="no"?>
<!DOCTYPE svg PUBLIC "-//W3C//DTD SVG 1.1//EN"
  "http://www.w3.org/Graphics/SVG/1.1/DTD/svg11.dtd">
<!-- Created with matplotlib (http://matplotlib.org/) -->
<svg height="345pt" version="1.1" viewBox="0 0 460 345" width="460pt" xmlns="http://www.w3.org/2000/svg" xmlns:xlink="http://www.w3.org/1999/xlink">
 <defs>
  <style type="text/css">
*{stroke-linecap:butt;stroke-linejoin:round;}
  </style>
 </defs>
 <g id="figure_1">
  <g id="patch_1">
   <path d="M 0 345.6 
L 460.8 345.6 
L 460.8 0 
L 0 0 
z
" style="fill:#ffffff;"/>
  </g>
  <g id="axes_1">
   <g id="patch_2">
    <path d="M 57.6 307.584 
L 414.72 307.584 
L 414.72 41.472 
L 57.6 41.472 
z
" style="fill:#ffffff;"/>
   </g>
   <g id="PathCollection_1">
    <defs>
     <path d="M 0 3 
C 0.795609 3 1.55874 2.683901 2.12132 2.12132 
C 2.683901 1.55874 3 0.795609 3 0 
C 3 -0.795609 2.683901 -1.55874 2.12132 -2.12132 
C 1.55874 -2.683901 0.795609 -3 0 -3 
C -0.795609 -3 -1.55874 -2.683901 -2.12132 -2.12132 
C -2.683901 -1.55874 -3 -0.795609 -3 0 
C -3 0.795609 -2.683901 1.55874 -2.12132 2.12132 
C -1.55874 2.683901 -0.795609 3 0 3 
z
" id="C0_0_aa6b58e039"/>
    </defs>
    <g clip-path="url(#p3a799243f9)">
     <use style="fill:#440154;stroke:#440154;" x="310.902568" xlink:href="#C0_0_aa6b58e039" y="151.405191"/>
    </g>
    <g clip-path="url(#p3a799243f9)">
     <use style="fill:#440154;stroke:#440154;" x="266.122765" xlink:href="#C0_0_aa6b58e039" y="178.817458"/>
    </g>
    <g clip-path="url(#p3a799243f9)">
     <use style="fill:#440154;stroke:#440154;" x="364.117717" xlink:href="#C0_0_aa6b58e039" y="98.402644"/>
    </g>
    <g clip-path="url(#p3a799243f9)">
     <use style="fill:#440154;stroke:#440154;" x="297.178099" xlink:href="#C0_0_aa6b58e039" y="165.318628"/>
    </g>
    <g clip-path="url(#p3a799243f9)">
     <use style="fill:#440154;stroke:#440154;" x="332.658765" xlink:href="#C0_0_aa6b58e039" y="210.365348"/>
    </g>
    <g clip-path="url(#p3a799243f9)">
     <use style="fill:#440154;stroke:#440154;" x="225.591331" xlink:href="#C0_0_aa6b58e039" y="228.447677"/>
    </g>
    <g clip-path="url(#p3a799243f9)">
     <use style="fill:#440154;stroke:#440154;" x="120.528544" xlink:href="#C0_0_aa6b58e039" y="202.614902"/>
    </g>
    <g clip-path="url(#p3a799243f9)">
     <use style="fill:#fde725;stroke:#fde725;" x="354.118561" xlink:href="#C0_0_aa6b58e039" y="191.395841"/>
    </g>
    <g clip-path="url(#p3a799243f9)">
     <use style="fill:#440154;stroke:#440154;" x="333.290377" xlink:href="#C0_0_aa6b58e039" y="107.256201"/>
    </g>
    <g clip-path="url(#p3a799243f9)">
     <use style="fill:#440154;stroke:#440154;" x="149.565534" xlink:href="#C0_0_aa6b58e039" y="151.711253"/>
    </g>
    <g clip-path="url(#p3a799243f9)">
     <use style="fill:#440154;stroke:#440154;" x="203.924673" xlink:href="#C0_0_aa6b58e039" y="79.874372"/>
    </g>
    <g clip-path="url(#p3a799243f9)">
     <use style="fill:#440154;stroke:#440154;" x="209.129507" xlink:href="#C0_0_aa6b58e039" y="139.786109"/>
    </g>
    <g clip-path="url(#p3a799243f9)">
     <use style="fill:#440154;stroke:#440154;" x="288.068236" xlink:href="#C0_0_aa6b58e039" y="283.020764"/>
    </g>
    <g clip-path="url(#p3a799243f9)">
     <use style="fill:#440154;stroke:#440154;" x="392.150615" xlink:href="#C0_0_aa6b58e039" y="124.024472"/>
    </g>
    <g clip-path="url(#p3a799243f9)">
     <use style="fill:#440154;stroke:#440154;" x="334.070505" xlink:href="#C0_0_aa6b58e039" y="123.341921"/>
    </g>
    <g clip-path="url(#p3a799243f9)">
     <use style="fill:#440154;stroke:#440154;" x="290.10805" xlink:href="#C0_0_aa6b58e039" y="201.826551"/>
    </g>
    <g clip-path="url(#p3a799243f9)">
     <use style="fill:#440154;stroke:#440154;" x="197.615293" xlink:href="#C0_0_aa6b58e039" y="205.125042"/>
    </g>
    <g clip-path="url(#p3a799243f9)">
     <use style="fill:#440154;stroke:#440154;" x="223.412398" xlink:href="#C0_0_aa6b58e039" y="202.234506"/>
    </g>
    <g clip-path="url(#p3a799243f9)">
     <use style="fill:#440154;stroke:#440154;" x="234.334514" xlink:href="#C0_0_aa6b58e039" y="118.2037"/>
    </g>
    <g clip-path="url(#p3a799243f9)">
     <use style="fill:#440154;stroke:#440154;" x="211.446188" xlink:href="#C0_0_aa6b58e039" y="192.182068"/>
    </g>
    <g clip-path="url(#p3a799243f9)">
     <use style="fill:#440154;stroke:#440154;" x="306.215949" xlink:href="#C0_0_aa6b58e039" y="178.919375"/>
    </g>
    <g clip-path="url(#p3a799243f9)">
     <use style="fill:#440154;stroke:#440154;" x="234.045796" xlink:href="#C0_0_aa6b58e039" y="293.907898"/>
    </g>
    <g clip-path="url(#p3a799243f9)">
     <use style="fill:#fde725;stroke:#fde725;" x="398.478049" xlink:href="#C0_0_aa6b58e039" y="223.364633"/>
    </g>
    <g clip-path="url(#p3a799243f9)">
     <use style="fill:#440154;stroke:#440154;" x="232.250272" xlink:href="#C0_0_aa6b58e039" y="271.183184"/>
    </g>
    <g clip-path="url(#p3a799243f9)">
     <use style="fill:#440154;stroke:#440154;" x="184.339162" xlink:href="#C0_0_aa6b58e039" y="195.577984"/>
    </g>
    <g clip-path="url(#p3a799243f9)">
     <use style="fill:#440154;stroke:#440154;" x="216.722041" xlink:href="#C0_0_aa6b58e039" y="125.243973"/>
    </g>
    <g clip-path="url(#p3a799243f9)">
     <use style="fill:#440154;stroke:#440154;" x="322.812986" xlink:href="#C0_0_aa6b58e039" y="295.477298"/>
    </g>
    <g clip-path="url(#p3a799243f9)">
     <use style="fill:#440154;stroke:#440154;" x="282.80358" xlink:href="#C0_0_aa6b58e039" y="180.509704"/>
    </g>
    <g clip-path="url(#p3a799243f9)">
     <use style="fill:#440154;stroke:#440154;" x="311.660169" xlink:href="#C0_0_aa6b58e039" y="95.935854"/>
    </g>
    <g clip-path="url(#p3a799243f9)">
     <use style="fill:#440154;stroke:#440154;" x="236.101209" xlink:href="#C0_0_aa6b58e039" y="172.387675"/>
    </g>
    <g clip-path="url(#p3a799243f9)">
     <use style="fill:#440154;stroke:#440154;" x="359.564505" xlink:href="#C0_0_aa6b58e039" y="124.500191"/>
    </g>
    <g clip-path="url(#p3a799243f9)">
     <use style="fill:#440154;stroke:#440154;" x="254.433819" xlink:href="#C0_0_aa6b58e039" y="203.234035"/>
    </g>
    <g clip-path="url(#p3a799243f9)">
     <use style="fill:#440154;stroke:#440154;" x="207.626018" xlink:href="#C0_0_aa6b58e039" y="256.828019"/>
    </g>
    <g clip-path="url(#p3a799243f9)">
     <use style="fill:#440154;stroke:#440154;" x="261.243334" xlink:href="#C0_0_aa6b58e039" y="133.510636"/>
    </g>
    <g clip-path="url(#p3a799243f9)">
     <use style="fill:#440154;stroke:#440154;" x="249.692539" xlink:href="#C0_0_aa6b58e039" y="161.322377"/>
    </g>
    <g clip-path="url(#p3a799243f9)">
     <use style="fill:#440154;stroke:#440154;" x="154.962311" xlink:href="#C0_0_aa6b58e039" y="132.603549"/>
    </g>
    <g clip-path="url(#p3a799243f9)">
     <use style="fill:#440154;stroke:#440154;" x="161.232255" xlink:href="#C0_0_aa6b58e039" y="185.095627"/>
    </g>
    <g clip-path="url(#p3a799243f9)">
     <use style="fill:#440154;stroke:#440154;" x="294.91802" xlink:href="#C0_0_aa6b58e039" y="229.323876"/>
    </g>
    <g clip-path="url(#p3a799243f9)">
     <use style="fill:#440154;stroke:#440154;" x="379.125691" xlink:href="#C0_0_aa6b58e039" y="143.035334"/>
    </g>
    <g clip-path="url(#p3a799243f9)">
     <use style="fill:#440154;stroke:#440154;" x="298.05917" xlink:href="#C0_0_aa6b58e039" y="104.003717"/>
    </g>
    <g clip-path="url(#p3a799243f9)">
     <use style="fill:#440154;stroke:#440154;" x="206.699894" xlink:href="#C0_0_aa6b58e039" y="178.653422"/>
    </g>
    <g clip-path="url(#p3a799243f9)">
     <use style="fill:#440154;stroke:#440154;" x="270.918208" xlink:href="#C0_0_aa6b58e039" y="111.441456"/>
    </g>
    <g clip-path="url(#p3a799243f9)">
     <use style="fill:#440154;stroke:#440154;" x="221.140519" xlink:href="#C0_0_aa6b58e039" y="150.301647"/>
    </g>
    <g clip-path="url(#p3a799243f9)">
     <use style="fill:#440154;stroke:#440154;" x="177.953587" xlink:href="#C0_0_aa6b58e039" y="214.554756"/>
    </g>
    <g clip-path="url(#p3a799243f9)">
     <use style="fill:#440154;stroke:#440154;" x="241.561252" xlink:href="#C0_0_aa6b58e039" y="80.868489"/>
    </g>
    <g clip-path="url(#p3a799243f9)">
     <use style="fill:#440154;stroke:#440154;" x="329.591814" xlink:href="#C0_0_aa6b58e039" y="193.738116"/>
    </g>
    <g clip-path="url(#p3a799243f9)">
     <use style="fill:#fde725;stroke:#fde725;" x="287.847887" xlink:href="#C0_0_aa6b58e039" y="123.621661"/>
    </g>
    <g clip-path="url(#p3a799243f9)">
     <use style="fill:#440154;stroke:#440154;" x="239.218822" xlink:href="#C0_0_aa6b58e039" y="147.611837"/>
    </g>
    <g clip-path="url(#p3a799243f9)">
     <use style="fill:#440154;stroke:#440154;" x="388.908839" xlink:href="#C0_0_aa6b58e039" y="184.795227"/>
    </g>
    <g clip-path="url(#p3a799243f9)">
     <use style="fill:#440154;stroke:#440154;" x="256.256127" xlink:href="#C0_0_aa6b58e039" y="149.881569"/>
    </g>
    <g clip-path="url(#p3a799243f9)">
     <use style="fill:#440154;stroke:#440154;" x="302.765911" xlink:href="#C0_0_aa6b58e039" y="245.587097"/>
    </g>
    <g clip-path="url(#p3a799243f9)">
     <use style="fill:#440154;stroke:#440154;" x="192.491862" xlink:href="#C0_0_aa6b58e039" y="183.525413"/>
    </g>
    <g clip-path="url(#p3a799243f9)">
     <use style="fill:#440154;stroke:#440154;" x="273.049911" xlink:href="#C0_0_aa6b58e039" y="148.768265"/>
    </g>
    <g clip-path="url(#p3a799243f9)">
     <use style="fill:#440154;stroke:#440154;" x="314.376417" xlink:href="#C0_0_aa6b58e039" y="73.423252"/>
    </g>
    <g clip-path="url(#p3a799243f9)">
     <use style="fill:#440154;stroke:#440154;" x="129.018043" xlink:href="#C0_0_aa6b58e039" y="178.66593"/>
    </g>
    <g clip-path="url(#p3a799243f9)">
     <use style="fill:#fde725;stroke:#fde725;" x="251.760392" xlink:href="#C0_0_aa6b58e039" y="121.847298"/>
    </g>
    <g clip-path="url(#p3a799243f9)">
     <use style="fill:#440154;stroke:#440154;" x="254.836871" xlink:href="#C0_0_aa6b58e039" y="221.412851"/>
    </g>
    <g clip-path="url(#p3a799243f9)">
     <use style="fill:#440154;stroke:#440154;" x="187.800099" xlink:href="#C0_0_aa6b58e039" y="142.484774"/>
    </g>
    <g clip-path="url(#p3a799243f9)">
     <use style="fill:#440154;stroke:#440154;" x="73.841951" xlink:href="#C0_0_aa6b58e039" y="202.635467"/>
    </g>
    <g clip-path="url(#p3a799243f9)">
     <use style="fill:#440154;stroke:#440154;" x="226.931662" xlink:href="#C0_0_aa6b58e039" y="183.590499"/>
    </g>
    <g clip-path="url(#p3a799243f9)">
     <use style="fill:#440154;stroke:#440154;" x="342.305725" xlink:href="#C0_0_aa6b58e039" y="262.551811"/>
    </g>
    <g clip-path="url(#p3a799243f9)">
     <use style="fill:#440154;stroke:#440154;" x="173.777262" xlink:href="#C0_0_aa6b58e039" y="173.130464"/>
    </g>
    <g clip-path="url(#p3a799243f9)">
     <use style="fill:#440154;stroke:#440154;" x="314.442313" xlink:href="#C0_0_aa6b58e039" y="133.848797"/>
    </g>
    <g clip-path="url(#p3a799243f9)">
     <use style="fill:#440154;stroke:#440154;" x="186.59826" xlink:href="#C0_0_aa6b58e039" y="247.186815"/>
    </g>
    <g clip-path="url(#p3a799243f9)">
     <use style="fill:#440154;stroke:#440154;" x="258.636679" xlink:href="#C0_0_aa6b58e039" y="251.714974"/>
    </g>
    <g clip-path="url(#p3a799243f9)">
     <use style="fill:#440154;stroke:#440154;" x="225.788133" xlink:href="#C0_0_aa6b58e039" y="243.599274"/>
    </g>
    <g clip-path="url(#p3a799243f9)">
     <use style="fill:#440154;stroke:#440154;" x="313.389389" xlink:href="#C0_0_aa6b58e039" y="192.18598"/>
    </g>
    <g clip-path="url(#p3a799243f9)">
     <use style="fill:#440154;stroke:#440154;" x="280.497541" xlink:href="#C0_0_aa6b58e039" y="223.747472"/>
    </g>
    <g clip-path="url(#p3a799243f9)">
     <use style="fill:#fde725;stroke:#fde725;" x="365.956692" xlink:href="#C0_0_aa6b58e039" y="184.17064"/>
    </g>
    <g clip-path="url(#p3a799243f9)">
     <use style="fill:#440154;stroke:#440154;" x="242.156149" xlink:href="#C0_0_aa6b58e039" y="95.708791"/>
    </g>
    <g clip-path="url(#p3a799243f9)">
     <use style="fill:#440154;stroke:#440154;" x="228.773342" xlink:href="#C0_0_aa6b58e039" y="92.377195"/>
    </g>
    <g clip-path="url(#p3a799243f9)">
     <use style="fill:#440154;stroke:#440154;" x="238.213463" xlink:href="#C0_0_aa6b58e039" y="211.147258"/>
    </g>
    <g clip-path="url(#p3a799243f9)">
     <use style="fill:#440154;stroke:#440154;" x="236.725144" xlink:href="#C0_0_aa6b58e039" y="195.633819"/>
    </g>
    <g clip-path="url(#p3a799243f9)">
     <use style="fill:#440154;stroke:#440154;" x="383.381324" xlink:href="#C0_0_aa6b58e039" y="206.470841"/>
    </g>
    <g clip-path="url(#p3a799243f9)">
     <use style="fill:#440154;stroke:#440154;" x="246.482593" xlink:href="#C0_0_aa6b58e039" y="186.330152"/>
    </g>
    <g clip-path="url(#p3a799243f9)">
     <use style="fill:#440154;stroke:#440154;" x="207.432949" xlink:href="#C0_0_aa6b58e039" y="230.72961"/>
    </g>
    <g clip-path="url(#p3a799243f9)">
     <use style="fill:#440154;stroke:#440154;" x="159.707467" xlink:href="#C0_0_aa6b58e039" y="196.130506"/>
    </g>
    <g clip-path="url(#p3a799243f9)">
     <use style="fill:#440154;stroke:#440154;" x="271.558719" xlink:href="#C0_0_aa6b58e039" y="164.120933"/>
    </g>
    <g clip-path="url(#p3a799243f9)">
     <use style="fill:#440154;stroke:#440154;" x="314.230139" xlink:href="#C0_0_aa6b58e039" y="218.984762"/>
    </g>
    <g clip-path="url(#p3a799243f9)">
     <use style="fill:#440154;stroke:#440154;" x="237.342381" xlink:href="#C0_0_aa6b58e039" y="134.573416"/>
    </g>
    <g clip-path="url(#p3a799243f9)">
     <use style="fill:#fde725;stroke:#fde725;" x="363.730621" xlink:href="#C0_0_aa6b58e039" y="197.613926"/>
    </g>
    <g clip-path="url(#p3a799243f9)">
     <use style="fill:#440154;stroke:#440154;" x="334.980209" xlink:href="#C0_0_aa6b58e039" y="90.158429"/>
    </g>
    <g clip-path="url(#p3a799243f9)">
     <use style="fill:#440154;stroke:#440154;" x="302.584893" xlink:href="#C0_0_aa6b58e039" y="205.048782"/>
    </g>
    <g clip-path="url(#p3a799243f9)">
     <use style="fill:#440154;stroke:#440154;" x="223.317772" xlink:href="#C0_0_aa6b58e039" y="63.700191"/>
    </g>
    <g clip-path="url(#p3a799243f9)">
     <use style="fill:#440154;stroke:#440154;" x="278.510232" xlink:href="#C0_0_aa6b58e039" y="208.114746"/>
    </g>
    <g clip-path="url(#p3a799243f9)">
     <use style="fill:#440154;stroke:#440154;" x="304.052798" xlink:href="#C0_0_aa6b58e039" y="219.248868"/>
    </g>
    <g clip-path="url(#p3a799243f9)">
     <use style="fill:#440154;stroke:#440154;" x="365.53211" xlink:href="#C0_0_aa6b58e039" y="248.972374"/>
    </g>
    <g clip-path="url(#p3a799243f9)">
     <use style="fill:#440154;stroke:#440154;" x="291.947755" xlink:href="#C0_0_aa6b58e039" y="260.948328"/>
    </g>
    <g clip-path="url(#p3a799243f9)">
     <use style="fill:#440154;stroke:#440154;" x="165.844222" xlink:href="#C0_0_aa6b58e039" y="262.532742"/>
    </g>
    <g clip-path="url(#p3a799243f9)">
     <use style="fill:#440154;stroke:#440154;" x="252.292198" xlink:href="#C0_0_aa6b58e039" y="174.680211"/>
    </g>
    <g clip-path="url(#p3a799243f9)">
     <use style="fill:#440154;stroke:#440154;" x="322.020329" xlink:href="#C0_0_aa6b58e039" y="168.414123"/>
    </g>
    <g clip-path="url(#p3a799243f9)">
     <use style="fill:#440154;stroke:#440154;" x="345.850918" xlink:href="#C0_0_aa6b58e039" y="168.727123"/>
    </g>
    <g clip-path="url(#p3a799243f9)">
     <use style="fill:#440154;stroke:#440154;" x="249.683664" xlink:href="#C0_0_aa6b58e039" y="244.757744"/>
    </g>
    <g clip-path="url(#p3a799243f9)">
     <use style="fill:#440154;stroke:#440154;" x="257.247876" xlink:href="#C0_0_aa6b58e039" y="270.596601"/>
    </g>
    <g clip-path="url(#p3a799243f9)">
     <use style="fill:#440154;stroke:#440154;" x="175.483298" xlink:href="#C0_0_aa6b58e039" y="85.681742"/>
    </g>
    <g clip-path="url(#p3a799243f9)">
     <use style="fill:#440154;stroke:#440154;" x="363.356237" xlink:href="#C0_0_aa6b58e039" y="146.348376"/>
    </g>
    <g clip-path="url(#p3a799243f9)">
     <use style="fill:#440154;stroke:#440154;" x="368.207072" xlink:href="#C0_0_aa6b58e039" y="160.217203"/>
    </g>
    <g clip-path="url(#p3a799243f9)">
     <use style="fill:#440154;stroke:#440154;" x="232.9643" xlink:href="#C0_0_aa6b58e039" y="159.172495"/>
    </g>
    <g clip-path="url(#p3a799243f9)">
     <use style="fill:#440154;stroke:#440154;" x="347.538403" xlink:href="#C0_0_aa6b58e039" y="144.625909"/>
    </g>
    <g clip-path="url(#p3a799243f9)">
     <use style="fill:#440154;stroke:#440154;" x="270.901803" xlink:href="#C0_0_aa6b58e039" y="236.962838"/>
    </g>
    <g clip-path="url(#p3a799243f9)">
     <use style="fill:#440154;stroke:#440154;" x="363.149182" xlink:href="#C0_0_aa6b58e039" y="221.770379"/>
    </g>
    <g clip-path="url(#p3a799243f9)">
     <use style="fill:#440154;stroke:#440154;" x="185.646485" xlink:href="#C0_0_aa6b58e039" y="109.707294"/>
    </g>
    <g clip-path="url(#p3a799243f9)">
     <use style="fill:#440154;stroke:#440154;" x="264.768873" xlink:href="#C0_0_aa6b58e039" y="192.439111"/>
    </g>
    <g clip-path="url(#p3a799243f9)">
     <use style="fill:#440154;stroke:#440154;" x="218.259136" xlink:href="#C0_0_aa6b58e039" y="168.64192"/>
    </g>
    <g clip-path="url(#p3a799243f9)">
     <use style="fill:#440154;stroke:#440154;" x="309.963315" xlink:href="#C0_0_aa6b58e039" y="115.621357"/>
    </g>
    <g clip-path="url(#p3a799243f9)">
     <use style="fill:#440154;stroke:#440154;" x="271.66581" xlink:href="#C0_0_aa6b58e039" y="93.871841"/>
    </g>
    <g clip-path="url(#p3a799243f9)">
     <use style="fill:#440154;stroke:#440154;" x="209.694372" xlink:href="#C0_0_aa6b58e039" y="104.972646"/>
    </g>
    <g clip-path="url(#p3a799243f9)">
     <use style="fill:#440154;stroke:#440154;" x="138.725987" xlink:href="#C0_0_aa6b58e039" y="195.781801"/>
    </g>
    <g clip-path="url(#p3a799243f9)">
     <use style="fill:#440154;stroke:#440154;" x="332.751139" xlink:href="#C0_0_aa6b58e039" y="235.374005"/>
    </g>
    <g clip-path="url(#p3a799243f9)">
     <use style="fill:#440154;stroke:#440154;" x="211.495825" xlink:href="#C0_0_aa6b58e039" y="216.173033"/>
    </g>
    <g clip-path="url(#p3a799243f9)">
     <use style="fill:#440154;stroke:#440154;" x="332.899173" xlink:href="#C0_0_aa6b58e039" y="160.827872"/>
    </g>
    <g clip-path="url(#p3a799243f9)">
     <use style="fill:#440154;stroke:#440154;" x="205.555087" xlink:href="#C0_0_aa6b58e039" y="158.499265"/>
    </g>
    <g clip-path="url(#p3a799243f9)">
     <use style="fill:#440154;stroke:#440154;" x="185.305032" xlink:href="#C0_0_aa6b58e039" y="232.254261"/>
    </g>
    <g clip-path="url(#p3a799243f9)">
     <use style="fill:#440154;stroke:#440154;" x="288.837333" xlink:href="#C0_0_aa6b58e039" y="147.683115"/>
    </g>
    <g clip-path="url(#p3a799243f9)">
     <use style="fill:#440154;stroke:#440154;" x="168.031215" xlink:href="#C0_0_aa6b58e039" y="156.611459"/>
    </g>
    <g clip-path="url(#p3a799243f9)">
     <use style="fill:#440154;stroke:#440154;" x="150.120008" xlink:href="#C0_0_aa6b58e039" y="108.609183"/>
    </g>
    <g clip-path="url(#p3a799243f9)">
     <use style="fill:#440154;stroke:#440154;" x="152.521831" xlink:href="#C0_0_aa6b58e039" y="169.879014"/>
    </g>
    <g clip-path="url(#p3a799243f9)">
     <use style="fill:#440154;stroke:#440154;" x="330.779779" xlink:href="#C0_0_aa6b58e039" y="53.578702"/>
    </g>
    <g clip-path="url(#p3a799243f9)">
     <use style="fill:#440154;stroke:#440154;" x="316.471593" xlink:href="#C0_0_aa6b58e039" y="231.771821"/>
    </g>
    <g clip-path="url(#p3a799243f9)">
     <use style="fill:#440154;stroke:#440154;" x="285.93792" xlink:href="#C0_0_aa6b58e039" y="73.510104"/>
    </g>
    <g clip-path="url(#p3a799243f9)">
     <use style="fill:#440154;stroke:#440154;" x="180.707014" xlink:href="#C0_0_aa6b58e039" y="162.156987"/>
    </g>
   </g>
   <g id="matplotlib.axis_1">
    <g id="xtick_1">
     <g id="line2d_1">
      <defs>
       <path d="M 0 0 
L 0 3.5 
" id="m59dc839bbe" style="stroke:#000000;stroke-width:0.8;"/>
      </defs>
      <g>
       <use style="stroke:#000000;stroke-width:0.8;" x="113.301251" xlink:href="#m59dc839bbe" y="307.584"/>
      </g>
     </g>
     <g id="text_1">
      <!-- −100 -->
      <defs>
       <path d="M 10.59375 35.5 
L 73.1875 35.5 
L 73.1875 27.203125 
L 10.59375 27.203125 
z
" id="DejaVuSans-2212"/>
       <path d="M 12.40625 8.296875 
L 28.515625 8.296875 
L 28.515625 63.921875 
L 10.984375 60.40625 
L 10.984375 69.390625 
L 28.421875 72.90625 
L 38.28125 72.90625 
L 38.28125 8.296875 
L 54.390625 8.296875 
L 54.390625 0 
L 12.40625 0 
z
" id="DejaVuSans-31"/>
       <path d="M 31.78125 66.40625 
Q 24.171875 66.40625 20.328125 58.90625 
Q 16.5 51.421875 16.5 36.375 
Q 16.5 21.390625 20.328125 13.890625 
Q 24.171875 6.390625 31.78125 6.390625 
Q 39.453125 6.390625 43.28125 13.890625 
Q 47.125 21.390625 47.125 36.375 
Q 47.125 51.421875 43.28125 58.90625 
Q 39.453125 66.40625 31.78125 66.40625 
M 31.78125 74.21875 
Q 44.046875 74.21875 50.515625 64.515625 
Q 56.984375 54.828125 56.984375 36.375 
Q 56.984375 17.96875 50.515625 8.265625 
Q 44.046875 -1.421875 31.78125 -1.421875 
Q 19.53125 -1.421875 13.0625 8.265625 
Q 6.59375 17.96875 6.59375 36.375 
Q 6.59375 54.828125 13.0625 64.515625 
Q 19.53125 74.21875 31.78125 74.21875 
" id="DejaVuSans-30"/>
      </defs>
      <g transform="translate(99.567657 322.182437)scale(0.1 -0.1)">
       <use xlink:href="#DejaVuSans-2212"/>
       <use x="83.789062" xlink:href="#DejaVuSans-31"/>
       <use x="147.412109" xlink:href="#DejaVuSans-30"/>
       <use x="211.035156" xlink:href="#DejaVuSans-30"/>
      </g>
     </g>
    </g>
    <g id="xtick_2">
     <g id="line2d_2">
      <g>
       <use style="stroke:#000000;stroke-width:0.8;" x="189.552893" xlink:href="#m59dc839bbe" y="307.584"/>
      </g>
     </g>
     <g id="text_2">
      <!-- −50 -->
      <defs>
       <path d="M 10.796875 72.90625 
L 49.515625 72.90625 
L 49.515625 64.59375 
L 19.828125 64.59375 
L 19.828125 46.734375 
Q 21.96875 47.46875 24.109375 47.828125 
Q 26.265625 48.1875 28.421875 48.1875 
Q 40.625 48.1875 47.75 41.5 
Q 54.890625 34.8125 54.890625 23.390625 
Q 54.890625 11.625 47.5625 5.09375 
Q 40.234375 -1.421875 26.90625 -1.421875 
Q 22.3125 -1.421875 17.546875 -0.640625 
Q 12.796875 0.140625 7.71875 1.703125 
L 7.71875 11.625 
Q 12.109375 9.234375 16.796875 8.0625 
Q 21.484375 6.890625 26.703125 6.890625 
Q 35.15625 6.890625 40.078125 11.328125 
Q 45.015625 15.765625 45.015625 23.390625 
Q 45.015625 31 40.078125 35.4375 
Q 35.15625 39.890625 26.703125 39.890625 
Q 22.75 39.890625 18.8125 39.015625 
Q 14.890625 38.140625 10.796875 36.28125 
z
" id="DejaVuSans-35"/>
      </defs>
      <g transform="translate(179.00055 322.182437)scale(0.1 -0.1)">
       <use xlink:href="#DejaVuSans-2212"/>
       <use x="83.789062" xlink:href="#DejaVuSans-35"/>
       <use x="147.412109" xlink:href="#DejaVuSans-30"/>
      </g>
     </g>
    </g>
    <g id="xtick_3">
     <g id="line2d_3">
      <g>
       <use style="stroke:#000000;stroke-width:0.8;" x="265.804536" xlink:href="#m59dc839bbe" y="307.584"/>
      </g>
     </g>
     <g id="text_3">
      <!-- 0 -->
      <g transform="translate(262.623286 322.182437)scale(0.1 -0.1)">
       <use xlink:href="#DejaVuSans-30"/>
      </g>
     </g>
    </g>
    <g id="xtick_4">
     <g id="line2d_4">
      <g>
       <use style="stroke:#000000;stroke-width:0.8;" x="342.056179" xlink:href="#m59dc839bbe" y="307.584"/>
      </g>
     </g>
     <g id="text_4">
      <!-- 50 -->
      <g transform="translate(335.693679 322.182437)scale(0.1 -0.1)">
       <use xlink:href="#DejaVuSans-35"/>
       <use x="63.623047" xlink:href="#DejaVuSans-30"/>
      </g>
     </g>
    </g>
   </g>
   <g id="matplotlib.axis_2">
    <g id="ytick_1">
     <g id="line2d_5">
      <defs>
       <path d="M 0 0 
L -3.5 0 
" id="m5b0323cefc" style="stroke:#000000;stroke-width:0.8;"/>
      </defs>
      <g>
       <use style="stroke:#000000;stroke-width:0.8;" x="57.6" xlink:href="#m5b0323cefc" y="302.224108"/>
      </g>
     </g>
     <g id="text_5">
      <!-- −100 -->
      <g transform="translate(23.132812 306.023326)scale(0.1 -0.1)">
       <use xlink:href="#DejaVuSans-2212"/>
       <use x="83.789062" xlink:href="#DejaVuSans-31"/>
       <use x="147.412109" xlink:href="#DejaVuSans-30"/>
       <use x="211.035156" xlink:href="#DejaVuSans-30"/>
      </g>
     </g>
    </g>
    <g id="ytick_2">
     <g id="line2d_6">
      <g>
       <use style="stroke:#000000;stroke-width:0.8;" x="57.6" xlink:href="#m5b0323cefc" y="269.262372"/>
      </g>
     </g>
     <g id="text_6">
      <!-- −75 -->
      <defs>
       <path d="M 8.203125 72.90625 
L 55.078125 72.90625 
L 55.078125 68.703125 
L 28.609375 0 
L 18.3125 0 
L 43.21875 64.59375 
L 8.203125 64.59375 
z
" id="DejaVuSans-37"/>
      </defs>
      <g transform="translate(29.495313 273.06159)scale(0.1 -0.1)">
       <use xlink:href="#DejaVuSans-2212"/>
       <use x="83.789062" xlink:href="#DejaVuSans-37"/>
       <use x="147.412109" xlink:href="#DejaVuSans-35"/>
      </g>
     </g>
    </g>
    <g id="ytick_3">
     <g id="line2d_7">
      <g>
       <use style="stroke:#000000;stroke-width:0.8;" x="57.6" xlink:href="#m5b0323cefc" y="236.300635"/>
      </g>
     </g>
     <g id="text_7">
      <!-- −50 -->
      <g transform="translate(29.495313 240.099854)scale(0.1 -0.1)">
       <use xlink:href="#DejaVuSans-2212"/>
       <use x="83.789062" xlink:href="#DejaVuSans-35"/>
       <use x="147.412109" xlink:href="#DejaVuSans-30"/>
      </g>
     </g>
    </g>
    <g id="ytick_4">
     <g id="line2d_8">
      <g>
       <use style="stroke:#000000;stroke-width:0.8;" x="57.6" xlink:href="#m5b0323cefc" y="203.338899"/>
      </g>
     </g>
     <g id="text_8">
      <!-- −25 -->
      <defs>
       <path d="M 19.1875 8.296875 
L 53.609375 8.296875 
L 53.609375 0 
L 7.328125 0 
L 7.328125 8.296875 
Q 12.9375 14.109375 22.625 23.890625 
Q 32.328125 33.6875 34.8125 36.53125 
Q 39.546875 41.84375 41.421875 45.53125 
Q 43.3125 49.21875 43.3125 52.78125 
Q 43.3125 58.59375 39.234375 62.25 
Q 35.15625 65.921875 28.609375 65.921875 
Q 23.96875 65.921875 18.8125 64.3125 
Q 13.671875 62.703125 7.8125 59.421875 
L 7.8125 69.390625 
Q 13.765625 71.78125 18.9375 73 
Q 24.125 74.21875 28.421875 74.21875 
Q 39.75 74.21875 46.484375 68.546875 
Q 53.21875 62.890625 53.21875 53.421875 
Q 53.21875 48.921875 51.53125 44.890625 
Q 49.859375 40.875 45.40625 35.40625 
Q 44.1875 33.984375 37.640625 27.21875 
Q 31.109375 20.453125 19.1875 8.296875 
" id="DejaVuSans-32"/>
      </defs>
      <g transform="translate(29.495313 207.138118)scale(0.1 -0.1)">
       <use xlink:href="#DejaVuSans-2212"/>
       <use x="83.789062" xlink:href="#DejaVuSans-32"/>
       <use x="147.412109" xlink:href="#DejaVuSans-35"/>
      </g>
     </g>
    </g>
    <g id="ytick_5">
     <g id="line2d_9">
      <g>
       <use style="stroke:#000000;stroke-width:0.8;" x="57.6" xlink:href="#m5b0323cefc" y="170.377163"/>
      </g>
     </g>
     <g id="text_9">
      <!-- 0 -->
      <g transform="translate(44.2375 174.176382)scale(0.1 -0.1)">
       <use xlink:href="#DejaVuSans-30"/>
      </g>
     </g>
    </g>
    <g id="ytick_6">
     <g id="line2d_10">
      <g>
       <use style="stroke:#000000;stroke-width:0.8;" x="57.6" xlink:href="#m5b0323cefc" y="137.415427"/>
      </g>
     </g>
     <g id="text_10">
      <!-- 25 -->
      <g transform="translate(37.875 141.214646)scale(0.1 -0.1)">
       <use xlink:href="#DejaVuSans-32"/>
       <use x="63.623047" xlink:href="#DejaVuSans-35"/>
      </g>
     </g>
    </g>
    <g id="ytick_7">
     <g id="line2d_11">
      <g>
       <use style="stroke:#000000;stroke-width:0.8;" x="57.6" xlink:href="#m5b0323cefc" y="104.453691"/>
      </g>
     </g>
     <g id="text_11">
      <!-- 50 -->
      <g transform="translate(37.875 108.25291)scale(0.1 -0.1)">
       <use xlink:href="#DejaVuSans-35"/>
       <use x="63.623047" xlink:href="#DejaVuSans-30"/>
      </g>
     </g>
    </g>
    <g id="ytick_8">
     <g id="line2d_12">
      <g>
       <use style="stroke:#000000;stroke-width:0.8;" x="57.6" xlink:href="#m5b0323cefc" y="71.491955"/>
      </g>
     </g>
     <g id="text_12">
      <!-- 75 -->
      <g transform="translate(37.875 75.291174)scale(0.1 -0.1)">
       <use xlink:href="#DejaVuSans-37"/>
       <use x="63.623047" xlink:href="#DejaVuSans-35"/>
      </g>
     </g>
    </g>
   </g>
   <g id="patch_3">
    <path d="M 57.6 307.584 
L 57.6 41.472 
" style="fill:none;stroke:#000000;stroke-linecap:square;stroke-linejoin:miter;stroke-width:0.8;"/>
   </g>
   <g id="patch_4">
    <path d="M 414.72 307.584 
L 414.72 41.472 
" style="fill:none;stroke:#000000;stroke-linecap:square;stroke-linejoin:miter;stroke-width:0.8;"/>
   </g>
   <g id="patch_5">
    <path d="M 57.6 307.584 
L 414.72 307.584 
" style="fill:none;stroke:#000000;stroke-linecap:square;stroke-linejoin:miter;stroke-width:0.8;"/>
   </g>
   <g id="patch_6">
    <path d="M 57.6 41.472 
L 414.72 41.472 
" style="fill:none;stroke:#000000;stroke-linecap:square;stroke-linejoin:miter;stroke-width:0.8;"/>
   </g>
   <g id="text_13">
    <!-- lemon cake mix -->
    <defs>
     <path d="M 9.421875 75.984375 
L 18.40625 75.984375 
L 18.40625 0 
L 9.421875 0 
z
" id="DejaVuSans-6c"/>
     <path d="M 56.203125 29.59375 
L 56.203125 25.203125 
L 14.890625 25.203125 
Q 15.484375 15.921875 20.484375 11.0625 
Q 25.484375 6.203125 34.421875 6.203125 
Q 39.59375 6.203125 44.453125 7.46875 
Q 49.3125 8.734375 54.109375 11.28125 
L 54.109375 2.78125 
Q 49.265625 0.734375 44.1875 -0.34375 
Q 39.109375 -1.421875 33.890625 -1.421875 
Q 20.796875 -1.421875 13.15625 6.1875 
Q 5.515625 13.8125 5.515625 26.8125 
Q 5.515625 40.234375 12.765625 48.109375 
Q 20.015625 56 32.328125 56 
Q 43.359375 56 49.78125 48.890625 
Q 56.203125 41.796875 56.203125 29.59375 
M 47.21875 32.234375 
Q 47.125 39.59375 43.09375 43.984375 
Q 39.0625 48.390625 32.421875 48.390625 
Q 24.90625 48.390625 20.390625 44.140625 
Q 15.875 39.890625 15.1875 32.171875 
z
" id="DejaVuSans-65"/>
     <path d="M 52 44.1875 
Q 55.375 50.25 60.0625 53.125 
Q 64.75 56 71.09375 56 
Q 79.640625 56 84.28125 50.015625 
Q 88.921875 44.046875 88.921875 33.015625 
L 88.921875 0 
L 79.890625 0 
L 79.890625 32.71875 
Q 79.890625 40.578125 77.09375 44.375 
Q 74.3125 48.1875 68.609375 48.1875 
Q 61.625 48.1875 57.5625 43.546875 
Q 53.515625 38.921875 53.515625 30.90625 
L 53.515625 0 
L 44.484375 0 
L 44.484375 32.71875 
Q 44.484375 40.625 41.703125 44.40625 
Q 38.921875 48.1875 33.109375 48.1875 
Q 26.21875 48.1875 22.15625 43.53125 
Q 18.109375 38.875 18.109375 30.90625 
L 18.109375 0 
L 9.078125 0 
L 9.078125 54.6875 
L 18.109375 54.6875 
L 18.109375 46.1875 
Q 21.1875 51.21875 25.484375 53.609375 
Q 29.78125 56 35.6875 56 
Q 41.65625 56 45.828125 52.96875 
Q 50 49.953125 52 44.1875 
" id="DejaVuSans-6d"/>
     <path d="M 30.609375 48.390625 
Q 23.390625 48.390625 19.1875 42.75 
Q 14.984375 37.109375 14.984375 27.296875 
Q 14.984375 17.484375 19.15625 11.84375 
Q 23.34375 6.203125 30.609375 6.203125 
Q 37.796875 6.203125 41.984375 11.859375 
Q 46.1875 17.53125 46.1875 27.296875 
Q 46.1875 37.015625 41.984375 42.703125 
Q 37.796875 48.390625 30.609375 48.390625 
M 30.609375 56 
Q 42.328125 56 49.015625 48.375 
Q 55.71875 40.765625 55.71875 27.296875 
Q 55.71875 13.875 49.015625 6.21875 
Q 42.328125 -1.421875 30.609375 -1.421875 
Q 18.84375 -1.421875 12.171875 6.21875 
Q 5.515625 13.875 5.515625 27.296875 
Q 5.515625 40.765625 12.171875 48.375 
Q 18.84375 56 30.609375 56 
" id="DejaVuSans-6f"/>
     <path d="M 54.890625 33.015625 
L 54.890625 0 
L 45.90625 0 
L 45.90625 32.71875 
Q 45.90625 40.484375 42.875 44.328125 
Q 39.84375 48.1875 33.796875 48.1875 
Q 26.515625 48.1875 22.3125 43.546875 
Q 18.109375 38.921875 18.109375 30.90625 
L 18.109375 0 
L 9.078125 0 
L 9.078125 54.6875 
L 18.109375 54.6875 
L 18.109375 46.1875 
Q 21.34375 51.125 25.703125 53.5625 
Q 30.078125 56 35.796875 56 
Q 45.21875 56 50.046875 50.171875 
Q 54.890625 44.34375 54.890625 33.015625 
" id="DejaVuSans-6e"/>
     <path id="DejaVuSans-20"/>
     <path d="M 48.78125 52.59375 
L 48.78125 44.1875 
Q 44.96875 46.296875 41.140625 47.34375 
Q 37.3125 48.390625 33.40625 48.390625 
Q 24.65625 48.390625 19.8125 42.84375 
Q 14.984375 37.3125 14.984375 27.296875 
Q 14.984375 17.28125 19.8125 11.734375 
Q 24.65625 6.203125 33.40625 6.203125 
Q 37.3125 6.203125 41.140625 7.25 
Q 44.96875 8.296875 48.78125 10.40625 
L 48.78125 2.09375 
Q 45.015625 0.34375 40.984375 -0.53125 
Q 36.96875 -1.421875 32.421875 -1.421875 
Q 20.0625 -1.421875 12.78125 6.34375 
Q 5.515625 14.109375 5.515625 27.296875 
Q 5.515625 40.671875 12.859375 48.328125 
Q 20.21875 56 33.015625 56 
Q 37.15625 56 41.109375 55.140625 
Q 45.0625 54.296875 48.78125 52.59375 
" id="DejaVuSans-63"/>
     <path d="M 34.28125 27.484375 
Q 23.390625 27.484375 19.1875 25 
Q 14.984375 22.515625 14.984375 16.5 
Q 14.984375 11.71875 18.140625 8.90625 
Q 21.296875 6.109375 26.703125 6.109375 
Q 34.1875 6.109375 38.703125 11.40625 
Q 43.21875 16.703125 43.21875 25.484375 
L 43.21875 27.484375 
z
M 52.203125 31.203125 
L 52.203125 0 
L 43.21875 0 
L 43.21875 8.296875 
Q 40.140625 3.328125 35.546875 0.953125 
Q 30.953125 -1.421875 24.3125 -1.421875 
Q 15.921875 -1.421875 10.953125 3.296875 
Q 6 8.015625 6 15.921875 
Q 6 25.140625 12.171875 29.828125 
Q 18.359375 34.515625 30.609375 34.515625 
L 43.21875 34.515625 
L 43.21875 35.40625 
Q 43.21875 41.609375 39.140625 45 
Q 35.0625 48.390625 27.6875 48.390625 
Q 23 48.390625 18.546875 47.265625 
Q 14.109375 46.140625 10.015625 43.890625 
L 10.015625 52.203125 
Q 14.9375 54.109375 19.578125 55.046875 
Q 24.21875 56 28.609375 56 
Q 40.484375 56 46.34375 49.84375 
Q 52.203125 43.703125 52.203125 31.203125 
" id="DejaVuSans-61"/>
     <path d="M 9.078125 75.984375 
L 18.109375 75.984375 
L 18.109375 31.109375 
L 44.921875 54.6875 
L 56.390625 54.6875 
L 27.390625 29.109375 
L 57.625 0 
L 45.90625 0 
L 18.109375 26.703125 
L 18.109375 0 
L 9.078125 0 
z
" id="DejaVuSans-6b"/>
     <path d="M 9.421875 54.6875 
L 18.40625 54.6875 
L 18.40625 0 
L 9.421875 0 
z
M 9.421875 75.984375 
L 18.40625 75.984375 
L 18.40625 64.59375 
L 9.421875 64.59375 
z
" id="DejaVuSans-69"/>
     <path d="M 54.890625 54.6875 
L 35.109375 28.078125 
L 55.90625 0 
L 45.3125 0 
L 29.390625 21.484375 
L 13.484375 0 
L 2.875 0 
L 24.125 28.609375 
L 4.6875 54.6875 
L 15.28125 54.6875 
L 29.78125 35.203125 
L 44.28125 54.6875 
z
" id="DejaVuSans-78"/>
    </defs>
    <g transform="translate(344.118561 201.395841)scale(0.0694 -0.0694)">
     <use xlink:href="#DejaVuSans-6c"/>
     <use x="27.783203" xlink:href="#DejaVuSans-65"/>
     <use x="89.306641" xlink:href="#DejaVuSans-6d"/>
     <use x="186.71875" xlink:href="#DejaVuSans-6f"/>
     <use x="247.900391" xlink:href="#DejaVuSans-6e"/>
     <use x="311.279297" xlink:href="#DejaVuSans-20"/>
     <use x="343.066406" xlink:href="#DejaVuSans-63"/>
     <use x="398.046875" xlink:href="#DejaVuSans-61"/>
     <use x="459.326172" xlink:href="#DejaVuSans-6b"/>
     <use x="517.189453" xlink:href="#DejaVuSans-65"/>
     <use x="578.712891" xlink:href="#DejaVuSans-20"/>
     <use x="610.5" xlink:href="#DejaVuSans-6d"/>
     <use x="707.912109" xlink:href="#DejaVuSans-69"/>
     <use x="735.695312" xlink:href="#DejaVuSans-78"/>
    </g>
   </g>
   <g id="text_14">
    <!-- spice cake mix -->
    <defs>
     <path d="M 44.28125 53.078125 
L 44.28125 44.578125 
Q 40.484375 46.53125 36.375 47.5 
Q 32.28125 48.484375 27.875 48.484375 
Q 21.1875 48.484375 17.84375 46.4375 
Q 14.5 44.390625 14.5 40.28125 
Q 14.5 37.15625 16.890625 35.375 
Q 19.28125 33.59375 26.515625 31.984375 
L 29.59375 31.296875 
Q 39.15625 29.25 43.1875 25.515625 
Q 47.21875 21.78125 47.21875 15.09375 
Q 47.21875 7.46875 41.1875 3.015625 
Q 35.15625 -1.421875 24.609375 -1.421875 
Q 20.21875 -1.421875 15.453125 -0.5625 
Q 10.6875 0.296875 5.421875 2 
L 5.421875 11.28125 
Q 10.40625 8.6875 15.234375 7.390625 
Q 20.0625 6.109375 24.8125 6.109375 
Q 31.15625 6.109375 34.5625 8.28125 
Q 37.984375 10.453125 37.984375 14.40625 
Q 37.984375 18.0625 35.515625 20.015625 
Q 33.0625 21.96875 24.703125 23.78125 
L 21.578125 24.515625 
Q 13.234375 26.265625 9.515625 29.90625 
Q 5.8125 33.546875 5.8125 39.890625 
Q 5.8125 47.609375 11.28125 51.796875 
Q 16.75 56 26.8125 56 
Q 31.78125 56 36.171875 55.265625 
Q 40.578125 54.546875 44.28125 53.078125 
" id="DejaVuSans-73"/>
     <path d="M 18.109375 8.203125 
L 18.109375 -20.796875 
L 9.078125 -20.796875 
L 9.078125 54.6875 
L 18.109375 54.6875 
L 18.109375 46.390625 
Q 20.953125 51.265625 25.265625 53.625 
Q 29.59375 56 35.59375 56 
Q 45.5625 56 51.78125 48.09375 
Q 58.015625 40.1875 58.015625 27.296875 
Q 58.015625 14.40625 51.78125 6.484375 
Q 45.5625 -1.421875 35.59375 -1.421875 
Q 29.59375 -1.421875 25.265625 0.953125 
Q 20.953125 3.328125 18.109375 8.203125 
M 48.6875 27.296875 
Q 48.6875 37.203125 44.609375 42.84375 
Q 40.53125 48.484375 33.40625 48.484375 
Q 26.265625 48.484375 22.1875 42.84375 
Q 18.109375 37.203125 18.109375 27.296875 
Q 18.109375 17.390625 22.1875 11.75 
Q 26.265625 6.109375 33.40625 6.109375 
Q 40.53125 6.109375 44.609375 11.75 
Q 48.6875 17.390625 48.6875 27.296875 
" id="DejaVuSans-70"/>
    </defs>
    <g transform="translate(388.478049 233.364633)scale(0.0694 -0.0694)">
     <use xlink:href="#DejaVuSans-73"/>
     <use x="52.099609" xlink:href="#DejaVuSans-70"/>
     <use x="115.576172" xlink:href="#DejaVuSans-69"/>
     <use x="143.359375" xlink:href="#DejaVuSans-63"/>
     <use x="198.339844" xlink:href="#DejaVuSans-65"/>
     <use x="259.863281" xlink:href="#DejaVuSans-20"/>
     <use x="291.650391" xlink:href="#DejaVuSans-63"/>
     <use x="346.630859" xlink:href="#DejaVuSans-61"/>
     <use x="407.910156" xlink:href="#DejaVuSans-6b"/>
     <use x="465.773438" xlink:href="#DejaVuSans-65"/>
     <use x="527.296875" xlink:href="#DejaVuSans-20"/>
     <use x="559.083984" xlink:href="#DejaVuSans-6d"/>
     <use x="656.496094" xlink:href="#DejaVuSans-69"/>
     <use x="684.279297" xlink:href="#DejaVuSans-78"/>
    </g>
   </g>
   <g id="text_15">
    <!-- yellow cake mix -->
    <defs>
     <path d="M 32.171875 -5.078125 
Q 28.375 -14.84375 24.75 -17.8125 
Q 21.140625 -20.796875 15.09375 -20.796875 
L 7.90625 -20.796875 
L 7.90625 -13.28125 
L 13.1875 -13.28125 
Q 16.890625 -13.28125 18.9375 -11.515625 
Q 21 -9.765625 23.484375 -3.21875 
L 25.09375 0.875 
L 2.984375 54.6875 
L 12.5 54.6875 
L 29.59375 11.921875 
L 46.6875 54.6875 
L 56.203125 54.6875 
z
" id="DejaVuSans-79"/>
     <path d="M 4.203125 54.6875 
L 13.1875 54.6875 
L 24.421875 12.015625 
L 35.59375 54.6875 
L 46.1875 54.6875 
L 57.421875 12.015625 
L 68.609375 54.6875 
L 77.59375 54.6875 
L 63.28125 0 
L 52.6875 0 
L 40.921875 44.828125 
L 29.109375 0 
L 18.5 0 
z
" id="DejaVuSans-77"/>
    </defs>
    <g transform="translate(277.847887 133.621661)scale(0.0694 -0.0694)">
     <use xlink:href="#DejaVuSans-79"/>
     <use x="59.179688" xlink:href="#DejaVuSans-65"/>
     <use x="120.703125" xlink:href="#DejaVuSans-6c"/>
     <use x="148.486328" xlink:href="#DejaVuSans-6c"/>
     <use x="176.269531" xlink:href="#DejaVuSans-6f"/>
     <use x="237.451172" xlink:href="#DejaVuSans-77"/>
     <use x="319.238281" xlink:href="#DejaVuSans-20"/>
     <use x="351.025391" xlink:href="#DejaVuSans-63"/>
     <use x="406.005859" xlink:href="#DejaVuSans-61"/>
     <use x="467.285156" xlink:href="#DejaVuSans-6b"/>
     <use x="525.148438" xlink:href="#DejaVuSans-65"/>
     <use x="586.671875" xlink:href="#DejaVuSans-20"/>
     <use x="618.458984" xlink:href="#DejaVuSans-6d"/>
     <use x="715.871094" xlink:href="#DejaVuSans-69"/>
     <use x="743.654297" xlink:href="#DejaVuSans-78"/>
    </g>
   </g>
   <g id="text_16">
    <!-- white cake mix -->
    <defs>
     <path d="M 54.890625 33.015625 
L 54.890625 0 
L 45.90625 0 
L 45.90625 32.71875 
Q 45.90625 40.484375 42.875 44.328125 
Q 39.84375 48.1875 33.796875 48.1875 
Q 26.515625 48.1875 22.3125 43.546875 
Q 18.109375 38.921875 18.109375 30.90625 
L 18.109375 0 
L 9.078125 0 
L 9.078125 75.984375 
L 18.109375 75.984375 
L 18.109375 46.1875 
Q 21.34375 51.125 25.703125 53.5625 
Q 30.078125 56 35.796875 56 
Q 45.21875 56 50.046875 50.171875 
Q 54.890625 44.34375 54.890625 33.015625 
" id="DejaVuSans-68"/>
     <path d="M 18.3125 70.21875 
L 18.3125 54.6875 
L 36.8125 54.6875 
L 36.8125 47.703125 
L 18.3125 47.703125 
L 18.3125 18.015625 
Q 18.3125 11.328125 20.140625 9.421875 
Q 21.96875 7.515625 27.59375 7.515625 
L 36.8125 7.515625 
L 36.8125 0 
L 27.59375 0 
Q 17.1875 0 13.234375 3.875 
Q 9.28125 7.765625 9.28125 18.015625 
L 9.28125 47.703125 
L 2.6875 47.703125 
L 2.6875 54.6875 
L 9.28125 54.6875 
L 9.28125 70.21875 
z
" id="DejaVuSans-74"/>
    </defs>
    <g transform="translate(241.760392 131.847298)scale(0.0694 -0.0694)">
     <use xlink:href="#DejaVuSans-77"/>
     <use x="81.787109" xlink:href="#DejaVuSans-68"/>
     <use x="145.166016" xlink:href="#DejaVuSans-69"/>
     <use x="172.949219" xlink:href="#DejaVuSans-74"/>
     <use x="212.158203" xlink:href="#DejaVuSans-65"/>
     <use x="273.681641" xlink:href="#DejaVuSans-20"/>
     <use x="305.46875" xlink:href="#DejaVuSans-63"/>
     <use x="360.449219" xlink:href="#DejaVuSans-61"/>
     <use x="421.728516" xlink:href="#DejaVuSans-6b"/>
     <use x="479.591797" xlink:href="#DejaVuSans-65"/>
     <use x="541.115234" xlink:href="#DejaVuSans-20"/>
     <use x="572.902344" xlink:href="#DejaVuSans-6d"/>
     <use x="670.314453" xlink:href="#DejaVuSans-69"/>
     <use x="698.097656" xlink:href="#DejaVuSans-78"/>
    </g>
   </g>
   <g id="text_17">
    <!-- devil's food cake mix -->
    <defs>
     <path d="M 45.40625 46.390625 
L 45.40625 75.984375 
L 54.390625 75.984375 
L 54.390625 0 
L 45.40625 0 
L 45.40625 8.203125 
Q 42.578125 3.328125 38.25 0.953125 
Q 33.9375 -1.421875 27.875 -1.421875 
Q 17.96875 -1.421875 11.734375 6.484375 
Q 5.515625 14.40625 5.515625 27.296875 
Q 5.515625 40.1875 11.734375 48.09375 
Q 17.96875 56 27.875 56 
Q 33.9375 56 38.25 53.625 
Q 42.578125 51.265625 45.40625 46.390625 
M 14.796875 27.296875 
Q 14.796875 17.390625 18.875 11.75 
Q 22.953125 6.109375 30.078125 6.109375 
Q 37.203125 6.109375 41.296875 11.75 
Q 45.40625 17.390625 45.40625 27.296875 
Q 45.40625 37.203125 41.296875 42.84375 
Q 37.203125 48.484375 30.078125 48.484375 
Q 22.953125 48.484375 18.875 42.84375 
Q 14.796875 37.203125 14.796875 27.296875 
" id="DejaVuSans-64"/>
     <path d="M 2.984375 54.6875 
L 12.5 54.6875 
L 29.59375 8.796875 
L 46.6875 54.6875 
L 56.203125 54.6875 
L 35.6875 0 
L 23.484375 0 
z
" id="DejaVuSans-76"/>
     <path d="M 17.921875 72.90625 
L 17.921875 45.796875 
L 9.625 45.796875 
L 9.625 72.90625 
z
" id="DejaVuSans-27"/>
     <path d="M 37.109375 75.984375 
L 37.109375 68.5 
L 28.515625 68.5 
Q 23.6875 68.5 21.796875 66.546875 
Q 19.921875 64.59375 19.921875 59.515625 
L 19.921875 54.6875 
L 34.71875 54.6875 
L 34.71875 47.703125 
L 19.921875 47.703125 
L 19.921875 0 
L 10.890625 0 
L 10.890625 47.703125 
L 2.296875 47.703125 
L 2.296875 54.6875 
L 10.890625 54.6875 
L 10.890625 58.5 
Q 10.890625 67.625 15.140625 71.796875 
Q 19.390625 75.984375 28.609375 75.984375 
z
" id="DejaVuSans-66"/>
    </defs>
    <g transform="translate(355.956692 194.17064)scale(0.0694 -0.0694)">
     <use xlink:href="#DejaVuSans-64"/>
     <use x="63.476562" xlink:href="#DejaVuSans-65"/>
     <use x="125" xlink:href="#DejaVuSans-76"/>
     <use x="184.179688" xlink:href="#DejaVuSans-69"/>
     <use x="211.962891" xlink:href="#DejaVuSans-6c"/>
     <use x="239.746094" xlink:href="#DejaVuSans-27"/>
     <use x="267.236328" xlink:href="#DejaVuSans-73"/>
     <use x="319.335938" xlink:href="#DejaVuSans-20"/>
     <use x="351.123047" xlink:href="#DejaVuSans-66"/>
     <use x="386.328125" xlink:href="#DejaVuSans-6f"/>
     <use x="447.509766" xlink:href="#DejaVuSans-6f"/>
     <use x="508.691406" xlink:href="#DejaVuSans-64"/>
     <use x="572.167969" xlink:href="#DejaVuSans-20"/>
     <use x="603.955078" xlink:href="#DejaVuSans-63"/>
     <use x="658.935547" xlink:href="#DejaVuSans-61"/>
     <use x="720.214844" xlink:href="#DejaVuSans-6b"/>
     <use x="778.078125" xlink:href="#DejaVuSans-65"/>
     <use x="839.601562" xlink:href="#DejaVuSans-20"/>
     <use x="871.388672" xlink:href="#DejaVuSans-6d"/>
     <use x="968.800781" xlink:href="#DejaVuSans-69"/>
     <use x="996.583984" xlink:href="#DejaVuSans-78"/>
    </g>
   </g>
   <g id="text_18">
    <!-- chocolate cake mix -->
    <g transform="translate(353.730621 207.613926)scale(0.0694 -0.0694)">
     <use xlink:href="#DejaVuSans-63"/>
     <use x="54.980469" xlink:href="#DejaVuSans-68"/>
     <use x="118.359375" xlink:href="#DejaVuSans-6f"/>
     <use x="179.541016" xlink:href="#DejaVuSans-63"/>
     <use x="234.521484" xlink:href="#DejaVuSans-6f"/>
     <use x="295.703125" xlink:href="#DejaVuSans-6c"/>
     <use x="323.486328" xlink:href="#DejaVuSans-61"/>
     <use x="384.765625" xlink:href="#DejaVuSans-74"/>
     <use x="423.974609" xlink:href="#DejaVuSans-65"/>
     <use x="485.498047" xlink:href="#DejaVuSans-20"/>
     <use x="517.285156" xlink:href="#DejaVuSans-63"/>
     <use x="572.265625" xlink:href="#DejaVuSans-61"/>
     <use x="633.544922" xlink:href="#DejaVuSans-6b"/>
     <use x="691.408203" xlink:href="#DejaVuSans-65"/>
     <use x="752.931641" xlink:href="#DejaVuSans-20"/>
     <use x="784.71875" xlink:href="#DejaVuSans-6d"/>
     <use x="882.130859" xlink:href="#DejaVuSans-69"/>
     <use x="909.914062" xlink:href="#DejaVuSans-78"/>
    </g>
   </g>
  </g>
 </g>
 <defs>
  <clipPath id="p3a799243f9">
   <rect height="266.112" width="357.12" x="57.6" y="41.472"/>
  </clipPath>
 </defs>
</svg>
