<?xml version="1.0" encoding="utf-8" standalone="no"?>
<!DOCTYPE svg PUBLIC "-//W3C//DTD SVG 1.1//EN"
  "http://www.w3.org/Graphics/SVG/1.1/DTD/svg11.dtd">
<!-- Created with matplotlib (http://matplotlib.org/) -->
<svg height="345pt" version="1.1" viewBox="0 0 460 345" width="460pt" xmlns="http://www.w3.org/2000/svg" xmlns:xlink="http://www.w3.org/1999/xlink">
 <defs>
  <style type="text/css">
*{stroke-linecap:butt;stroke-linejoin:round;}
  </style>
 </defs>
 <g id="figure_1">
  <g id="patch_1">
   <path d="M 0 345.6 
L 460.8 345.6 
L 460.8 0 
L 0 0 
z
" style="fill:#ffffff;"/>
  </g>
  <g id="axes_1">
   <g id="patch_2">
    <path d="M 57.6 307.584 
L 414.72 307.584 
L 414.72 41.472 
L 57.6 41.472 
z
" style="fill:#ffffff;"/>
   </g>
   <g id="PathCollection_1">
    <defs>
     <path d="M 0 3 
C 0.795609 3 1.55874 2.683901 2.12132 2.12132 
C 2.683901 1.55874 3 0.795609 3 0 
C 3 -0.795609 2.683901 -1.55874 2.12132 -2.12132 
C 1.55874 -2.683901 0.795609 -3 0 -3 
C -0.795609 -3 -1.55874 -2.683901 -2.12132 -2.12132 
C -2.683901 -1.55874 -3 -0.795609 -3 0 
C -3 0.795609 -2.683901 1.55874 -2.12132 2.12132 
C -1.55874 2.683901 -0.795609 3 0 3 
z
" id="C0_0_de035d252b"/>
    </defs>
    <g clip-path="url(#pd6e6fe1977)">
     <use style="fill:#440154;stroke:#440154;" x="129.428719" xlink:href="#C0_0_de035d252b" y="220.174627"/>
    </g>
    <g clip-path="url(#pd6e6fe1977)">
     <use style="fill:#440154;stroke:#440154;" x="217.508682" xlink:href="#C0_0_de035d252b" y="226.376684"/>
    </g>
    <g clip-path="url(#pd6e6fe1977)">
     <use style="fill:#fde725;stroke:#fde725;" x="161.281706" xlink:href="#C0_0_de035d252b" y="129.587675"/>
    </g>
    <g clip-path="url(#pd6e6fe1977)">
     <use style="fill:#440154;stroke:#440154;" x="220.923248" xlink:href="#C0_0_de035d252b" y="210.562629"/>
    </g>
    <g clip-path="url(#pd6e6fe1977)">
     <use style="fill:#440154;stroke:#440154;" x="257.104692" xlink:href="#C0_0_de035d252b" y="193.409353"/>
    </g>
    <g clip-path="url(#pd6e6fe1977)">
     <use style="fill:#440154;stroke:#440154;" x="198.707192" xlink:href="#C0_0_de035d252b" y="161.990075"/>
    </g>
    <g clip-path="url(#pd6e6fe1977)">
     <use style="fill:#440154;stroke:#440154;" x="143.028488" xlink:href="#C0_0_de035d252b" y="135.589381"/>
    </g>
    <g clip-path="url(#pd6e6fe1977)">
     <use style="fill:#440154;stroke:#440154;" x="169.60897" xlink:href="#C0_0_de035d252b" y="109.221472"/>
    </g>
    <g clip-path="url(#pd6e6fe1977)">
     <use style="fill:#440154;stroke:#440154;" x="268.793679" xlink:href="#C0_0_de035d252b" y="208.949346"/>
    </g>
    <g clip-path="url(#pd6e6fe1977)">
     <use style="fill:#440154;stroke:#440154;" x="239.008924" xlink:href="#C0_0_de035d252b" y="156.818677"/>
    </g>
    <g clip-path="url(#pd6e6fe1977)">
     <use style="fill:#440154;stroke:#440154;" x="194.031562" xlink:href="#C0_0_de035d252b" y="125.480553"/>
    </g>
    <g clip-path="url(#pd6e6fe1977)">
     <use style="fill:#440154;stroke:#440154;" x="98.036544" xlink:href="#C0_0_de035d252b" y="146.728886"/>
    </g>
    <g clip-path="url(#pd6e6fe1977)">
     <use style="fill:#440154;stroke:#440154;" x="107.615981" xlink:href="#C0_0_de035d252b" y="235.753204"/>
    </g>
    <g clip-path="url(#pd6e6fe1977)">
     <use style="fill:#440154;stroke:#440154;" x="278.768672" xlink:href="#C0_0_de035d252b" y="149.137339"/>
    </g>
    <g clip-path="url(#pd6e6fe1977)">
     <use style="fill:#440154;stroke:#440154;" x="276.234147" xlink:href="#C0_0_de035d252b" y="174.168067"/>
    </g>
    <g clip-path="url(#pd6e6fe1977)">
     <use style="fill:#440154;stroke:#440154;" x="162.621763" xlink:href="#C0_0_de035d252b" y="205.181348"/>
    </g>
    <g clip-path="url(#pd6e6fe1977)">
     <use style="fill:#440154;stroke:#440154;" x="220.105891" xlink:href="#C0_0_de035d252b" y="61.916945"/>
    </g>
    <g clip-path="url(#pd6e6fe1977)">
     <use style="fill:#440154;stroke:#440154;" x="153.036973" xlink:href="#C0_0_de035d252b" y="186.786984"/>
    </g>
    <g clip-path="url(#pd6e6fe1977)">
     <use style="fill:#440154;stroke:#440154;" x="143.567727" xlink:href="#C0_0_de035d252b" y="153.915503"/>
    </g>
    <g clip-path="url(#pd6e6fe1977)">
     <use style="fill:#440154;stroke:#440154;" x="108.217262" xlink:href="#C0_0_de035d252b" y="132.799942"/>
    </g>
    <g clip-path="url(#pd6e6fe1977)">
     <use style="fill:#440154;stroke:#440154;" x="189.733223" xlink:href="#C0_0_de035d252b" y="241.909423"/>
    </g>
    <g clip-path="url(#pd6e6fe1977)">
     <use style="fill:#440154;stroke:#440154;" x="398.47961" xlink:href="#C0_0_de035d252b" y="210.676221"/>
    </g>
    <g clip-path="url(#pd6e6fe1977)">
     <use style="fill:#440154;stroke:#440154;" x="112.637194" xlink:href="#C0_0_de035d252b" y="153.483448"/>
    </g>
    <g clip-path="url(#pd6e6fe1977)">
     <use style="fill:#440154;stroke:#440154;" x="178.737328" xlink:href="#C0_0_de035d252b" y="149.508425"/>
    </g>
    <g clip-path="url(#pd6e6fe1977)">
     <use style="fill:#440154;stroke:#440154;" x="245.775376" xlink:href="#C0_0_de035d252b" y="201.347331"/>
    </g>
    <g clip-path="url(#pd6e6fe1977)">
     <use style="fill:#440154;stroke:#440154;" x="201.825352" xlink:href="#C0_0_de035d252b" y="226.910303"/>
    </g>
    <g clip-path="url(#pd6e6fe1977)">
     <use style="fill:#440154;stroke:#440154;" x="223.828429" xlink:href="#C0_0_de035d252b" y="163.428129"/>
    </g>
    <g clip-path="url(#pd6e6fe1977)">
     <use style="fill:#440154;stroke:#440154;" x="296.905835" xlink:href="#C0_0_de035d252b" y="169.154302"/>
    </g>
    <g clip-path="url(#pd6e6fe1977)">
     <use style="fill:#440154;stroke:#440154;" x="251.59678" xlink:href="#C0_0_de035d252b" y="86.220075"/>
    </g>
    <g clip-path="url(#pd6e6fe1977)">
     <use style="fill:#440154;stroke:#440154;" x="232.184817" xlink:href="#C0_0_de035d252b" y="226.57961"/>
    </g>
    <g clip-path="url(#pd6e6fe1977)">
     <use style="fill:#440154;stroke:#440154;" x="229.180804" xlink:href="#C0_0_de035d252b" y="171.915772"/>
    </g>
    <g clip-path="url(#pd6e6fe1977)">
     <use style="fill:#440154;stroke:#440154;" x="255.608771" xlink:href="#C0_0_de035d252b" y="222.188094"/>
    </g>
    <g clip-path="url(#pd6e6fe1977)">
     <use style="fill:#440154;stroke:#440154;" x="133.141115" xlink:href="#C0_0_de035d252b" y="179.548088"/>
    </g>
    <g clip-path="url(#pd6e6fe1977)">
     <use style="fill:#440154;stroke:#440154;" x="152.046992" xlink:href="#C0_0_de035d252b" y="84.989099"/>
    </g>
    <g clip-path="url(#pd6e6fe1977)">
     <use style="fill:#440154;stroke:#440154;" x="189.983913" xlink:href="#C0_0_de035d252b" y="209.882408"/>
    </g>
    <g clip-path="url(#pd6e6fe1977)">
     <use style="fill:#440154;stroke:#440154;" x="240.965203" xlink:href="#C0_0_de035d252b" y="214.235595"/>
    </g>
    <g clip-path="url(#pd6e6fe1977)">
     <use style="fill:#440154;stroke:#440154;" x="90.543689" xlink:href="#C0_0_de035d252b" y="177.696561"/>
    </g>
    <g clip-path="url(#pd6e6fe1977)">
     <use style="fill:#440154;stroke:#440154;" x="209.032709" xlink:href="#C0_0_de035d252b" y="138.244056"/>
    </g>
    <g clip-path="url(#pd6e6fe1977)">
     <use style="fill:#440154;stroke:#440154;" x="114.174377" xlink:href="#C0_0_de035d252b" y="213.773473"/>
    </g>
    <g clip-path="url(#pd6e6fe1977)">
     <use style="fill:#440154;stroke:#440154;" x="257.939499" xlink:href="#C0_0_de035d252b" y="71.674084"/>
    </g>
    <g clip-path="url(#pd6e6fe1977)">
     <use style="fill:#440154;stroke:#440154;" x="170.575412" xlink:href="#C0_0_de035d252b" y="189.770327"/>
    </g>
    <g clip-path="url(#pd6e6fe1977)">
     <use style="fill:#440154;stroke:#440154;" x="213.327295" xlink:href="#C0_0_de035d252b" y="156.680343"/>
    </g>
    <g clip-path="url(#pd6e6fe1977)">
     <use style="fill:#440154;stroke:#440154;" x="275.466132" xlink:href="#C0_0_de035d252b" y="226.125054"/>
    </g>
    <g clip-path="url(#pd6e6fe1977)">
     <use style="fill:#440154;stroke:#440154;" x="190.322576" xlink:href="#C0_0_de035d252b" y="272.170161"/>
    </g>
    <g clip-path="url(#pd6e6fe1977)">
     <use style="fill:#440154;stroke:#440154;" x="246.417078" xlink:href="#C0_0_de035d252b" y="172.739194"/>
    </g>
    <g clip-path="url(#pd6e6fe1977)">
     <use style="fill:#440154;stroke:#440154;" x="112.238694" xlink:href="#C0_0_de035d252b" y="189.198621"/>
    </g>
    <g clip-path="url(#pd6e6fe1977)">
     <use style="fill:#440154;stroke:#440154;" x="172.291972" xlink:href="#C0_0_de035d252b" y="133.368122"/>
    </g>
    <g clip-path="url(#pd6e6fe1977)">
     <use style="fill:#440154;stroke:#440154;" x="147.980063" xlink:href="#C0_0_de035d252b" y="269.203993"/>
    </g>
    <g clip-path="url(#pd6e6fe1977)">
     <use style="fill:#440154;stroke:#440154;" x="200.040124" xlink:href="#C0_0_de035d252b" y="179.63951"/>
    </g>
    <g clip-path="url(#pd6e6fe1977)">
     <use style="fill:#440154;stroke:#440154;" x="163.155222" xlink:href="#C0_0_de035d252b" y="295.477556"/>
    </g>
    <g clip-path="url(#pd6e6fe1977)">
     <use style="fill:#440154;stroke:#440154;" x="174.361177" xlink:href="#C0_0_de035d252b" y="246.312396"/>
    </g>
    <g clip-path="url(#pd6e6fe1977)">
     <use style="fill:#440154;stroke:#440154;" x="184.822387" xlink:href="#C0_0_de035d252b" y="183.19318"/>
    </g>
    <g clip-path="url(#pd6e6fe1977)">
     <use style="fill:#440154;stroke:#440154;" x="166.367897" xlink:href="#C0_0_de035d252b" y="263.686844"/>
    </g>
    <g clip-path="url(#pd6e6fe1977)">
     <use style="fill:#440154;stroke:#440154;" x="285.522859" xlink:href="#C0_0_de035d252b" y="196.067069"/>
    </g>
    <g clip-path="url(#pd6e6fe1977)">
     <use style="fill:#440154;stroke:#440154;" x="245.213278" xlink:href="#C0_0_de035d252b" y="271.542163"/>
    </g>
    <g clip-path="url(#pd6e6fe1977)">
     <use style="fill:#440154;stroke:#440154;" x="124.855598" xlink:href="#C0_0_de035d252b" y="127.638135"/>
    </g>
    <g clip-path="url(#pd6e6fe1977)">
     <use style="fill:#440154;stroke:#440154;" x="267.673728" xlink:href="#C0_0_de035d252b" y="254.240798"/>
    </g>
    <g clip-path="url(#pd6e6fe1977)">
     <use style="fill:#440154;stroke:#440154;" x="145.238812" xlink:href="#C0_0_de035d252b" y="227.571733"/>
    </g>
    <g clip-path="url(#pd6e6fe1977)">
     <use style="fill:#440154;stroke:#440154;" x="165.387317" xlink:href="#C0_0_de035d252b" y="230.102339"/>
    </g>
    <g clip-path="url(#pd6e6fe1977)">
     <use style="fill:#440154;stroke:#440154;" x="128.422233" xlink:href="#C0_0_de035d252b" y="142.522875"/>
    </g>
    <g clip-path="url(#pd6e6fe1977)">
     <use style="fill:#440154;stroke:#440154;" x="160.33777" xlink:href="#C0_0_de035d252b" y="117.221741"/>
    </g>
    <g clip-path="url(#pd6e6fe1977)">
     <use style="fill:#440154;stroke:#440154;" x="198.397299" xlink:href="#C0_0_de035d252b" y="99.332011"/>
    </g>
    <g clip-path="url(#pd6e6fe1977)">
     <use style="fill:#440154;stroke:#440154;" x="272.679592" xlink:href="#C0_0_de035d252b" y="108.886313"/>
    </g>
    <g clip-path="url(#pd6e6fe1977)">
     <use style="fill:#440154;stroke:#440154;" x="233.66362" xlink:href="#C0_0_de035d252b" y="124.872818"/>
    </g>
    <g clip-path="url(#pd6e6fe1977)">
     <use style="fill:#440154;stroke:#440154;" x="159.864625" xlink:href="#C0_0_de035d252b" y="150.109098"/>
    </g>
    <g clip-path="url(#pd6e6fe1977)">
     <use style="fill:#440154;stroke:#440154;" x="221.418235" xlink:href="#C0_0_de035d252b" y="114.643281"/>
    </g>
    <g clip-path="url(#pd6e6fe1977)">
     <use style="fill:#440154;stroke:#440154;" x="142.179899" xlink:href="#C0_0_de035d252b" y="97.386103"/>
    </g>
    <g clip-path="url(#pd6e6fe1977)">
     <use style="fill:#440154;stroke:#440154;" x="142.747484" xlink:href="#C0_0_de035d252b" y="203.851971"/>
    </g>
    <g clip-path="url(#pd6e6fe1977)">
     <use style="fill:#440154;stroke:#440154;" x="180.886823" xlink:href="#C0_0_de035d252b" y="103.23821"/>
    </g>
    <g clip-path="url(#pd6e6fe1977)">
     <use style="fill:#440154;stroke:#440154;" x="261.161319" xlink:href="#C0_0_de035d252b" y="162.886489"/>
    </g>
    <g clip-path="url(#pd6e6fe1977)">
     <use style="fill:#440154;stroke:#440154;" x="208.177793" xlink:href="#C0_0_de035d252b" y="120.650067"/>
    </g>
    <g clip-path="url(#pd6e6fe1977)">
     <use style="fill:#440154;stroke:#440154;" x="247.1207" xlink:href="#C0_0_de035d252b" y="114.629709"/>
    </g>
    <g clip-path="url(#pd6e6fe1977)">
     <use style="fill:#440154;stroke:#440154;" x="252.750917" xlink:href="#C0_0_de035d252b" y="148.46163"/>
    </g>
    <g clip-path="url(#pd6e6fe1977)">
     <use style="fill:#440154;stroke:#440154;" x="267.9932" xlink:href="#C0_0_de035d252b" y="129.11989"/>
    </g>
    <g clip-path="url(#pd6e6fe1977)">
     <use style="fill:#440154;stroke:#440154;" x="179.362015" xlink:href="#C0_0_de035d252b" y="198.010319"/>
    </g>
    <g clip-path="url(#pd6e6fe1977)">
     <use style="fill:#440154;stroke:#440154;" x="130.418354" xlink:href="#C0_0_de035d252b" y="194.826867"/>
    </g>
    <g clip-path="url(#pd6e6fe1977)">
     <use style="fill:#440154;stroke:#440154;" x="97.646518" xlink:href="#C0_0_de035d252b" y="168.873908"/>
    </g>
    <g clip-path="url(#pd6e6fe1977)">
     <use style="fill:#440154;stroke:#440154;" x="137.021503" xlink:href="#C0_0_de035d252b" y="168.527493"/>
    </g>
    <g clip-path="url(#pd6e6fe1977)">
     <use style="fill:#440154;stroke:#440154;" x="244.757122" xlink:href="#C0_0_de035d252b" y="241.020627"/>
    </g>
    <g clip-path="url(#pd6e6fe1977)">
     <use style="fill:#440154;stroke:#440154;" x="105.806293" xlink:href="#C0_0_de035d252b" y="114.468056"/>
    </g>
    <g clip-path="url(#pd6e6fe1977)">
     <use style="fill:#440154;stroke:#440154;" x="169.105853" xlink:href="#C0_0_de035d252b" y="98.637761"/>
    </g>
    <g clip-path="url(#pd6e6fe1977)">
     <use style="fill:#fde725;stroke:#fde725;" x="216.23007" xlink:href="#C0_0_de035d252b" y="263.249473"/>
    </g>
    <g clip-path="url(#pd6e6fe1977)">
     <use style="fill:#440154;stroke:#440154;" x="158.201037" xlink:href="#C0_0_de035d252b" y="215.414553"/>
    </g>
    <g clip-path="url(#pd6e6fe1977)">
     <use style="fill:#440154;stroke:#440154;" x="73.84039" xlink:href="#C0_0_de035d252b" y="159.107572"/>
    </g>
    <g clip-path="url(#pd6e6fe1977)">
     <use style="fill:#440154;stroke:#440154;" x="171.780368" xlink:href="#C0_0_de035d252b" y="172.354182"/>
    </g>
    <g clip-path="url(#pd6e6fe1977)">
     <use style="fill:#440154;stroke:#440154;" x="139.797222" xlink:href="#C0_0_de035d252b" y="249.115944"/>
    </g>
    <g clip-path="url(#pd6e6fe1977)">
     <use style="fill:#440154;stroke:#440154;" x="194.748666" xlink:href="#C0_0_de035d252b" y="145.520468"/>
    </g>
    <g clip-path="url(#pd6e6fe1977)">
     <use style="fill:#440154;stroke:#440154;" x="232.396403" xlink:href="#C0_0_de035d252b" y="252.153866"/>
    </g>
    <g clip-path="url(#pd6e6fe1977)">
     <use style="fill:#440154;stroke:#440154;" x="178.105323" xlink:href="#C0_0_de035d252b" y="77.533886"/>
    </g>
    <g clip-path="url(#pd6e6fe1977)">
     <use style="fill:#440154;stroke:#440154;" x="299.032001" xlink:href="#C0_0_de035d252b" y="147.380079"/>
    </g>
    <g clip-path="url(#pd6e6fe1977)">
     <use style="fill:#440154;stroke:#440154;" x="221.248916" xlink:href="#C0_0_de035d252b" y="191.224214"/>
    </g>
    <g clip-path="url(#pd6e6fe1977)">
     <use style="fill:#440154;stroke:#440154;" x="205.875022" xlink:href="#C0_0_de035d252b" y="77.979309"/>
    </g>
    <g clip-path="url(#pd6e6fe1977)">
     <use style="fill:#440154;stroke:#440154;" x="152.543961" xlink:href="#C0_0_de035d252b" y="61.364619"/>
    </g>
    <g clip-path="url(#pd6e6fe1977)">
     <use style="fill:#fde725;stroke:#fde725;" x="154.394894" xlink:href="#C0_0_de035d252b" y="168.410093"/>
    </g>
    <g clip-path="url(#pd6e6fe1977)">
     <use style="fill:#440154;stroke:#440154;" x="122.577565" xlink:href="#C0_0_de035d252b" y="157.541977"/>
    </g>
    <g clip-path="url(#pd6e6fe1977)">
     <use style="fill:#440154;stroke:#440154;" x="101.667801" xlink:href="#C0_0_de035d252b" y="216.10704"/>
    </g>
    <g clip-path="url(#pd6e6fe1977)">
     <use style="fill:#440154;stroke:#440154;" x="192.632285" xlink:href="#C0_0_de035d252b" y="255.01978"/>
    </g>
    <g clip-path="url(#pd6e6fe1977)">
     <use style="fill:#440154;stroke:#440154;" x="250.821274" xlink:href="#C0_0_de035d252b" y="130.73826"/>
    </g>
    <g clip-path="url(#pd6e6fe1977)">
     <use style="fill:#440154;stroke:#440154;" x="116.162044" xlink:href="#C0_0_de035d252b" y="226.433561"/>
    </g>
    <g clip-path="url(#pd6e6fe1977)">
     <use style="fill:#440154;stroke:#440154;" x="224.985105" xlink:href="#C0_0_de035d252b" y="144.375309"/>
    </g>
    <g clip-path="url(#pd6e6fe1977)">
     <use style="fill:#440154;stroke:#440154;" x="215.319092" xlink:href="#C0_0_de035d252b" y="244.382634"/>
    </g>
    <g clip-path="url(#pd6e6fe1977)">
     <use style="fill:#440154;stroke:#440154;" x="115.503862" xlink:href="#C0_0_de035d252b" y="88.186275"/>
    </g>
    <g clip-path="url(#pd6e6fe1977)">
     <use style="fill:#440154;stroke:#440154;" x="238.744638" xlink:href="#C0_0_de035d252b" y="141.50453"/>
    </g>
    <g clip-path="url(#pd6e6fe1977)">
     <use style="fill:#440154;stroke:#440154;" x="134.595724" xlink:href="#C0_0_de035d252b" y="77.140104"/>
    </g>
    <g clip-path="url(#pd6e6fe1977)">
     <use style="fill:#fde725;stroke:#fde725;" x="193.458401" xlink:href="#C0_0_de035d252b" y="53.578444"/>
    </g>
    <g clip-path="url(#pd6e6fe1977)">
     <use style="fill:#440154;stroke:#440154;" x="142.518801" xlink:href="#C0_0_de035d252b" y="107.713479"/>
    </g>
    <g clip-path="url(#pd6e6fe1977)">
     <use style="fill:#440154;stroke:#440154;" x="206.015997" xlink:href="#C0_0_de035d252b" y="210.688995"/>
    </g>
    <g clip-path="url(#pd6e6fe1977)">
     <use style="fill:#440154;stroke:#440154;" x="117.020421" xlink:href="#C0_0_de035d252b" y="173.648172"/>
    </g>
    <g clip-path="url(#pd6e6fe1977)">
     <use style="fill:#440154;stroke:#440154;" x="179.810246" xlink:href="#C0_0_de035d252b" y="223.972064"/>
    </g>
    <g clip-path="url(#pd6e6fe1977)">
     <use style="fill:#440154;stroke:#440154;" x="214.933325" xlink:href="#C0_0_de035d252b" y="174.634786"/>
    </g>
    <g clip-path="url(#pd6e6fe1977)">
     <use style="fill:#440154;stroke:#440154;" x="258.792156" xlink:href="#C0_0_de035d252b" y="178.37644"/>
    </g>
    <g clip-path="url(#pd6e6fe1977)">
     <use style="fill:#440154;stroke:#440154;" x="91.062328" xlink:href="#C0_0_de035d252b" y="128.637311"/>
    </g>
    <g clip-path="url(#pd6e6fe1977)">
     <use style="fill:#440154;stroke:#440154;" x="278.876484" xlink:href="#C0_0_de035d252b" y="127.746179"/>
    </g>
    <g clip-path="url(#pd6e6fe1977)">
     <use style="fill:#440154;stroke:#440154;" x="233.744233" xlink:href="#C0_0_de035d252b" y="103.945977"/>
    </g>
    <g clip-path="url(#pd6e6fe1977)">
     <use style="fill:#440154;stroke:#440154;" x="211.821154" xlink:href="#C0_0_de035d252b" y="98.24909"/>
    </g>
    <g clip-path="url(#pd6e6fe1977)">
     <use style="fill:#440154;stroke:#440154;" x="236.144821" xlink:href="#C0_0_de035d252b" y="189.621147"/>
    </g>
    <g clip-path="url(#pd6e6fe1977)">
     <use style="fill:#440154;stroke:#440154;" x="122.924733" xlink:href="#C0_0_de035d252b" y="109.692543"/>
    </g>
    <g clip-path="url(#pd6e6fe1977)">
     <use style="fill:#440154;stroke:#440154;" x="200.261917" xlink:href="#C0_0_de035d252b" y="195.409866"/>
    </g>
    <g clip-path="url(#pd6e6fe1977)">
     <use style="fill:#440154;stroke:#440154;" x="126.577984" xlink:href="#C0_0_de035d252b" y="252.458392"/>
    </g>
    <g clip-path="url(#pd6e6fe1977)">
     <use style="fill:#440154;stroke:#440154;" x="177.045166" xlink:href="#C0_0_de035d252b" y="123.57384"/>
    </g>
    <g clip-path="url(#pd6e6fe1977)">
     <use style="fill:#440154;stroke:#440154;" x="154.963942" xlink:href="#C0_0_de035d252b" y="243.599509"/>
    </g>
   </g>
   <g id="matplotlib.axis_1"/>
   <g id="matplotlib.axis_2"/>
   <g id="patch_3">
    <path d="M 57.6 307.584 
L 57.6 41.472 
" style="fill:none;stroke:#000000;stroke-linecap:square;stroke-linejoin:miter;stroke-width:0.8;"/>
   </g>
   <g id="patch_4">
    <path d="M 414.72 307.584 
L 414.72 41.472 
" style="fill:none;stroke:#000000;stroke-linecap:square;stroke-linejoin:miter;stroke-width:0.8;"/>
   </g>
   <g id="patch_5">
    <path d="M 57.6 307.584 
L 414.72 307.584 
" style="fill:none;stroke:#000000;stroke-linecap:square;stroke-linejoin:miter;stroke-width:0.8;"/>
   </g>
   <g id="patch_6">
    <path d="M 57.6 41.472 
L 414.72 41.472 
" style="fill:none;stroke:#000000;stroke-linecap:square;stroke-linejoin:miter;stroke-width:0.8;"/>
   </g>
   <g id="text_1">
    <!-- sweetened condensed milk -->
    <defs>
     <path d="M 44.28125 53.078125 
L 44.28125 44.578125 
Q 40.484375 46.53125 36.375 47.5 
Q 32.28125 48.484375 27.875 48.484375 
Q 21.1875 48.484375 17.84375 46.4375 
Q 14.5 44.390625 14.5 40.28125 
Q 14.5 37.15625 16.890625 35.375 
Q 19.28125 33.59375 26.515625 31.984375 
L 29.59375 31.296875 
Q 39.15625 29.25 43.1875 25.515625 
Q 47.21875 21.78125 47.21875 15.09375 
Q 47.21875 7.46875 41.1875 3.015625 
Q 35.15625 -1.421875 24.609375 -1.421875 
Q 20.21875 -1.421875 15.453125 -0.5625 
Q 10.6875 0.296875 5.421875 2 
L 5.421875 11.28125 
Q 10.40625 8.6875 15.234375 7.390625 
Q 20.0625 6.109375 24.8125 6.109375 
Q 31.15625 6.109375 34.5625 8.28125 
Q 37.984375 10.453125 37.984375 14.40625 
Q 37.984375 18.0625 35.515625 20.015625 
Q 33.0625 21.96875 24.703125 23.78125 
L 21.578125 24.515625 
Q 13.234375 26.265625 9.515625 29.90625 
Q 5.8125 33.546875 5.8125 39.890625 
Q 5.8125 47.609375 11.28125 51.796875 
Q 16.75 56 26.8125 56 
Q 31.78125 56 36.171875 55.265625 
Q 40.578125 54.546875 44.28125 53.078125 
" id="DejaVuSans-73"/>
     <path d="M 4.203125 54.6875 
L 13.1875 54.6875 
L 24.421875 12.015625 
L 35.59375 54.6875 
L 46.1875 54.6875 
L 57.421875 12.015625 
L 68.609375 54.6875 
L 77.59375 54.6875 
L 63.28125 0 
L 52.6875 0 
L 40.921875 44.828125 
L 29.109375 0 
L 18.5 0 
z
" id="DejaVuSans-77"/>
     <path d="M 56.203125 29.59375 
L 56.203125 25.203125 
L 14.890625 25.203125 
Q 15.484375 15.921875 20.484375 11.0625 
Q 25.484375 6.203125 34.421875 6.203125 
Q 39.59375 6.203125 44.453125 7.46875 
Q 49.3125 8.734375 54.109375 11.28125 
L 54.109375 2.78125 
Q 49.265625 0.734375 44.1875 -0.34375 
Q 39.109375 -1.421875 33.890625 -1.421875 
Q 20.796875 -1.421875 13.15625 6.1875 
Q 5.515625 13.8125 5.515625 26.8125 
Q 5.515625 40.234375 12.765625 48.109375 
Q 20.015625 56 32.328125 56 
Q 43.359375 56 49.78125 48.890625 
Q 56.203125 41.796875 56.203125 29.59375 
M 47.21875 32.234375 
Q 47.125 39.59375 43.09375 43.984375 
Q 39.0625 48.390625 32.421875 48.390625 
Q 24.90625 48.390625 20.390625 44.140625 
Q 15.875 39.890625 15.1875 32.171875 
z
" id="DejaVuSans-65"/>
     <path d="M 18.3125 70.21875 
L 18.3125 54.6875 
L 36.8125 54.6875 
L 36.8125 47.703125 
L 18.3125 47.703125 
L 18.3125 18.015625 
Q 18.3125 11.328125 20.140625 9.421875 
Q 21.96875 7.515625 27.59375 7.515625 
L 36.8125 7.515625 
L 36.8125 0 
L 27.59375 0 
Q 17.1875 0 13.234375 3.875 
Q 9.28125 7.765625 9.28125 18.015625 
L 9.28125 47.703125 
L 2.6875 47.703125 
L 2.6875 54.6875 
L 9.28125 54.6875 
L 9.28125 70.21875 
z
" id="DejaVuSans-74"/>
     <path d="M 54.890625 33.015625 
L 54.890625 0 
L 45.90625 0 
L 45.90625 32.71875 
Q 45.90625 40.484375 42.875 44.328125 
Q 39.84375 48.1875 33.796875 48.1875 
Q 26.515625 48.1875 22.3125 43.546875 
Q 18.109375 38.921875 18.109375 30.90625 
L 18.109375 0 
L 9.078125 0 
L 9.078125 54.6875 
L 18.109375 54.6875 
L 18.109375 46.1875 
Q 21.34375 51.125 25.703125 53.5625 
Q 30.078125 56 35.796875 56 
Q 45.21875 56 50.046875 50.171875 
Q 54.890625 44.34375 54.890625 33.015625 
" id="DejaVuSans-6e"/>
     <path d="M 45.40625 46.390625 
L 45.40625 75.984375 
L 54.390625 75.984375 
L 54.390625 0 
L 45.40625 0 
L 45.40625 8.203125 
Q 42.578125 3.328125 38.25 0.953125 
Q 33.9375 -1.421875 27.875 -1.421875 
Q 17.96875 -1.421875 11.734375 6.484375 
Q 5.515625 14.40625 5.515625 27.296875 
Q 5.515625 40.1875 11.734375 48.09375 
Q 17.96875 56 27.875 56 
Q 33.9375 56 38.25 53.625 
Q 42.578125 51.265625 45.40625 46.390625 
M 14.796875 27.296875 
Q 14.796875 17.390625 18.875 11.75 
Q 22.953125 6.109375 30.078125 6.109375 
Q 37.203125 6.109375 41.296875 11.75 
Q 45.40625 17.390625 45.40625 27.296875 
Q 45.40625 37.203125 41.296875 42.84375 
Q 37.203125 48.484375 30.078125 48.484375 
Q 22.953125 48.484375 18.875 42.84375 
Q 14.796875 37.203125 14.796875 27.296875 
" id="DejaVuSans-64"/>
     <path id="DejaVuSans-20"/>
     <path d="M 48.78125 52.59375 
L 48.78125 44.1875 
Q 44.96875 46.296875 41.140625 47.34375 
Q 37.3125 48.390625 33.40625 48.390625 
Q 24.65625 48.390625 19.8125 42.84375 
Q 14.984375 37.3125 14.984375 27.296875 
Q 14.984375 17.28125 19.8125 11.734375 
Q 24.65625 6.203125 33.40625 6.203125 
Q 37.3125 6.203125 41.140625 7.25 
Q 44.96875 8.296875 48.78125 10.40625 
L 48.78125 2.09375 
Q 45.015625 0.34375 40.984375 -0.53125 
Q 36.96875 -1.421875 32.421875 -1.421875 
Q 20.0625 -1.421875 12.78125 6.34375 
Q 5.515625 14.109375 5.515625 27.296875 
Q 5.515625 40.671875 12.859375 48.328125 
Q 20.21875 56 33.015625 56 
Q 37.15625 56 41.109375 55.140625 
Q 45.0625 54.296875 48.78125 52.59375 
" id="DejaVuSans-63"/>
     <path d="M 30.609375 48.390625 
Q 23.390625 48.390625 19.1875 42.75 
Q 14.984375 37.109375 14.984375 27.296875 
Q 14.984375 17.484375 19.15625 11.84375 
Q 23.34375 6.203125 30.609375 6.203125 
Q 37.796875 6.203125 41.984375 11.859375 
Q 46.1875 17.53125 46.1875 27.296875 
Q 46.1875 37.015625 41.984375 42.703125 
Q 37.796875 48.390625 30.609375 48.390625 
M 30.609375 56 
Q 42.328125 56 49.015625 48.375 
Q 55.71875 40.765625 55.71875 27.296875 
Q 55.71875 13.875 49.015625 6.21875 
Q 42.328125 -1.421875 30.609375 -1.421875 
Q 18.84375 -1.421875 12.171875 6.21875 
Q 5.515625 13.875 5.515625 27.296875 
Q 5.515625 40.765625 12.171875 48.375 
Q 18.84375 56 30.609375 56 
" id="DejaVuSans-6f"/>
     <path d="M 52 44.1875 
Q 55.375 50.25 60.0625 53.125 
Q 64.75 56 71.09375 56 
Q 79.640625 56 84.28125 50.015625 
Q 88.921875 44.046875 88.921875 33.015625 
L 88.921875 0 
L 79.890625 0 
L 79.890625 32.71875 
Q 79.890625 40.578125 77.09375 44.375 
Q 74.3125 48.1875 68.609375 48.1875 
Q 61.625 48.1875 57.5625 43.546875 
Q 53.515625 38.921875 53.515625 30.90625 
L 53.515625 0 
L 44.484375 0 
L 44.484375 32.71875 
Q 44.484375 40.625 41.703125 44.40625 
Q 38.921875 48.1875 33.109375 48.1875 
Q 26.21875 48.1875 22.15625 43.53125 
Q 18.109375 38.875 18.109375 30.90625 
L 18.109375 0 
L 9.078125 0 
L 9.078125 54.6875 
L 18.109375 54.6875 
L 18.109375 46.1875 
Q 21.1875 51.21875 25.484375 53.609375 
Q 29.78125 56 35.6875 56 
Q 41.65625 56 45.828125 52.96875 
Q 50 49.953125 52 44.1875 
" id="DejaVuSans-6d"/>
     <path d="M 9.421875 54.6875 
L 18.40625 54.6875 
L 18.40625 0 
L 9.421875 0 
z
M 9.421875 75.984375 
L 18.40625 75.984375 
L 18.40625 64.59375 
L 9.421875 64.59375 
z
" id="DejaVuSans-69"/>
     <path d="M 9.421875 75.984375 
L 18.40625 75.984375 
L 18.40625 0 
L 9.421875 0 
z
" id="DejaVuSans-6c"/>
     <path d="M 9.078125 75.984375 
L 18.109375 75.984375 
L 18.109375 31.109375 
L 44.921875 54.6875 
L 56.390625 54.6875 
L 27.390625 29.109375 
L 57.625 0 
L 45.90625 0 
L 18.109375 26.703125 
L 18.109375 0 
L 9.078125 0 
z
" id="DejaVuSans-6b"/>
    </defs>
    <g transform="translate(151.281706 139.587675)scale(0.0694 -0.0694)">
     <use xlink:href="#DejaVuSans-73"/>
     <use x="52.099609" xlink:href="#DejaVuSans-77"/>
     <use x="133.886719" xlink:href="#DejaVuSans-65"/>
     <use x="195.410156" xlink:href="#DejaVuSans-65"/>
     <use x="256.933594" xlink:href="#DejaVuSans-74"/>
     <use x="296.142578" xlink:href="#DejaVuSans-65"/>
     <use x="357.666016" xlink:href="#DejaVuSans-6e"/>
     <use x="421.044922" xlink:href="#DejaVuSans-65"/>
     <use x="482.568359" xlink:href="#DejaVuSans-64"/>
     <use x="546.044922" xlink:href="#DejaVuSans-20"/>
     <use x="577.832031" xlink:href="#DejaVuSans-63"/>
     <use x="632.8125" xlink:href="#DejaVuSans-6f"/>
     <use x="693.994141" xlink:href="#DejaVuSans-6e"/>
     <use x="757.373047" xlink:href="#DejaVuSans-64"/>
     <use x="820.849609" xlink:href="#DejaVuSans-65"/>
     <use x="882.373047" xlink:href="#DejaVuSans-6e"/>
     <use x="945.751953" xlink:href="#DejaVuSans-73"/>
     <use x="997.851562" xlink:href="#DejaVuSans-65"/>
     <use x="1059.375" xlink:href="#DejaVuSans-64"/>
     <use x="1122.851562" xlink:href="#DejaVuSans-20"/>
     <use x="1154.638672" xlink:href="#DejaVuSans-6d"/>
     <use x="1252.050781" xlink:href="#DejaVuSans-69"/>
     <use x="1279.833984" xlink:href="#DejaVuSans-6c"/>
     <use x="1307.617188" xlink:href="#DejaVuSans-6b"/>
    </g>
   </g>
   <g id="text_2">
    <!-- german sweet chocolate -->
    <defs>
     <path d="M 45.40625 27.984375 
Q 45.40625 37.75 41.375 43.109375 
Q 37.359375 48.484375 30.078125 48.484375 
Q 22.859375 48.484375 18.828125 43.109375 
Q 14.796875 37.75 14.796875 27.984375 
Q 14.796875 18.265625 18.828125 12.890625 
Q 22.859375 7.515625 30.078125 7.515625 
Q 37.359375 7.515625 41.375 12.890625 
Q 45.40625 18.265625 45.40625 27.984375 
M 54.390625 6.78125 
Q 54.390625 -7.171875 48.1875 -13.984375 
Q 42 -20.796875 29.203125 -20.796875 
Q 24.46875 -20.796875 20.265625 -20.09375 
Q 16.0625 -19.390625 12.109375 -17.921875 
L 12.109375 -9.1875 
Q 16.0625 -11.328125 19.921875 -12.34375 
Q 23.78125 -13.375 27.78125 -13.375 
Q 36.625 -13.375 41.015625 -8.765625 
Q 45.40625 -4.15625 45.40625 5.171875 
L 45.40625 9.625 
Q 42.625 4.78125 38.28125 2.390625 
Q 33.9375 0 27.875 0 
Q 17.828125 0 11.671875 7.65625 
Q 5.515625 15.328125 5.515625 27.984375 
Q 5.515625 40.671875 11.671875 48.328125 
Q 17.828125 56 27.875 56 
Q 33.9375 56 38.28125 53.609375 
Q 42.625 51.21875 45.40625 46.390625 
L 45.40625 54.6875 
L 54.390625 54.6875 
z
" id="DejaVuSans-67"/>
     <path d="M 41.109375 46.296875 
Q 39.59375 47.171875 37.8125 47.578125 
Q 36.03125 48 33.890625 48 
Q 26.265625 48 22.1875 43.046875 
Q 18.109375 38.09375 18.109375 28.8125 
L 18.109375 0 
L 9.078125 0 
L 9.078125 54.6875 
L 18.109375 54.6875 
L 18.109375 46.1875 
Q 20.953125 51.171875 25.484375 53.578125 
Q 30.03125 56 36.53125 56 
Q 37.453125 56 38.578125 55.875 
Q 39.703125 55.765625 41.0625 55.515625 
z
" id="DejaVuSans-72"/>
     <path d="M 34.28125 27.484375 
Q 23.390625 27.484375 19.1875 25 
Q 14.984375 22.515625 14.984375 16.5 
Q 14.984375 11.71875 18.140625 8.90625 
Q 21.296875 6.109375 26.703125 6.109375 
Q 34.1875 6.109375 38.703125 11.40625 
Q 43.21875 16.703125 43.21875 25.484375 
L 43.21875 27.484375 
z
M 52.203125 31.203125 
L 52.203125 0 
L 43.21875 0 
L 43.21875 8.296875 
Q 40.140625 3.328125 35.546875 0.953125 
Q 30.953125 -1.421875 24.3125 -1.421875 
Q 15.921875 -1.421875 10.953125 3.296875 
Q 6 8.015625 6 15.921875 
Q 6 25.140625 12.171875 29.828125 
Q 18.359375 34.515625 30.609375 34.515625 
L 43.21875 34.515625 
L 43.21875 35.40625 
Q 43.21875 41.609375 39.140625 45 
Q 35.0625 48.390625 27.6875 48.390625 
Q 23 48.390625 18.546875 47.265625 
Q 14.109375 46.140625 10.015625 43.890625 
L 10.015625 52.203125 
Q 14.9375 54.109375 19.578125 55.046875 
Q 24.21875 56 28.609375 56 
Q 40.484375 56 46.34375 49.84375 
Q 52.203125 43.703125 52.203125 31.203125 
" id="DejaVuSans-61"/>
     <path d="M 54.890625 33.015625 
L 54.890625 0 
L 45.90625 0 
L 45.90625 32.71875 
Q 45.90625 40.484375 42.875 44.328125 
Q 39.84375 48.1875 33.796875 48.1875 
Q 26.515625 48.1875 22.3125 43.546875 
Q 18.109375 38.921875 18.109375 30.90625 
L 18.109375 0 
L 9.078125 0 
L 9.078125 75.984375 
L 18.109375 75.984375 
L 18.109375 46.1875 
Q 21.34375 51.125 25.703125 53.5625 
Q 30.078125 56 35.796875 56 
Q 45.21875 56 50.046875 50.171875 
Q 54.890625 44.34375 54.890625 33.015625 
" id="DejaVuSans-68"/>
    </defs>
    <g transform="translate(206.23007 273.249473)scale(0.0694 -0.0694)">
     <use xlink:href="#DejaVuSans-67"/>
     <use x="63.476562" xlink:href="#DejaVuSans-65"/>
     <use x="125" xlink:href="#DejaVuSans-72"/>
     <use x="166.097656" xlink:href="#DejaVuSans-6d"/>
     <use x="263.509766" xlink:href="#DejaVuSans-61"/>
     <use x="324.789062" xlink:href="#DejaVuSans-6e"/>
     <use x="388.167969" xlink:href="#DejaVuSans-20"/>
     <use x="419.955078" xlink:href="#DejaVuSans-73"/>
     <use x="472.054688" xlink:href="#DejaVuSans-77"/>
     <use x="553.841797" xlink:href="#DejaVuSans-65"/>
     <use x="615.365234" xlink:href="#DejaVuSans-65"/>
     <use x="676.888672" xlink:href="#DejaVuSans-74"/>
     <use x="716.097656" xlink:href="#DejaVuSans-20"/>
     <use x="747.884766" xlink:href="#DejaVuSans-63"/>
     <use x="802.865234" xlink:href="#DejaVuSans-68"/>
     <use x="866.244141" xlink:href="#DejaVuSans-6f"/>
     <use x="927.425781" xlink:href="#DejaVuSans-63"/>
     <use x="982.40625" xlink:href="#DejaVuSans-6f"/>
     <use x="1043.587891" xlink:href="#DejaVuSans-6c"/>
     <use x="1071.371094" xlink:href="#DejaVuSans-61"/>
     <use x="1132.650391" xlink:href="#DejaVuSans-74"/>
     <use x="1171.859375" xlink:href="#DejaVuSans-65"/>
    </g>
   </g>
   <g id="text_3">
    <!-- unsweetened chocolate -->
    <defs>
     <path d="M 8.5 21.578125 
L 8.5 54.6875 
L 17.484375 54.6875 
L 17.484375 21.921875 
Q 17.484375 14.15625 20.5 10.265625 
Q 23.53125 6.390625 29.59375 6.390625 
Q 36.859375 6.390625 41.078125 11.03125 
Q 45.3125 15.671875 45.3125 23.6875 
L 45.3125 54.6875 
L 54.296875 54.6875 
L 54.296875 0 
L 45.3125 0 
L 45.3125 8.40625 
Q 42.046875 3.421875 37.71875 1 
Q 33.40625 -1.421875 27.6875 -1.421875 
Q 18.265625 -1.421875 13.375 4.4375 
Q 8.5 10.296875 8.5 21.578125 
M 31.109375 56 
z
" id="DejaVuSans-75"/>
    </defs>
    <g transform="translate(144.394894 178.410093)scale(0.0694 -0.0694)">
     <use xlink:href="#DejaVuSans-75"/>
     <use x="63.378906" xlink:href="#DejaVuSans-6e"/>
     <use x="126.757812" xlink:href="#DejaVuSans-73"/>
     <use x="178.857422" xlink:href="#DejaVuSans-77"/>
     <use x="260.644531" xlink:href="#DejaVuSans-65"/>
     <use x="322.167969" xlink:href="#DejaVuSans-65"/>
     <use x="383.691406" xlink:href="#DejaVuSans-74"/>
     <use x="422.900391" xlink:href="#DejaVuSans-65"/>
     <use x="484.423828" xlink:href="#DejaVuSans-6e"/>
     <use x="547.802734" xlink:href="#DejaVuSans-65"/>
     <use x="609.326172" xlink:href="#DejaVuSans-64"/>
     <use x="672.802734" xlink:href="#DejaVuSans-20"/>
     <use x="704.589844" xlink:href="#DejaVuSans-63"/>
     <use x="759.570312" xlink:href="#DejaVuSans-68"/>
     <use x="822.949219" xlink:href="#DejaVuSans-6f"/>
     <use x="884.130859" xlink:href="#DejaVuSans-63"/>
     <use x="939.111328" xlink:href="#DejaVuSans-6f"/>
     <use x="1000.292969" xlink:href="#DejaVuSans-6c"/>
     <use x="1028.076172" xlink:href="#DejaVuSans-61"/>
     <use x="1089.355469" xlink:href="#DejaVuSans-74"/>
     <use x="1128.564453" xlink:href="#DejaVuSans-65"/>
    </g>
   </g>
   <g id="text_4">
    <!-- semi-sweet chocolate -->
    <defs>
     <path d="M 4.890625 31.390625 
L 31.203125 31.390625 
L 31.203125 23.390625 
L 4.890625 23.390625 
z
" id="DejaVuSans-2d"/>
    </defs>
    <g transform="translate(183.458401 63.578444)scale(0.0694 -0.0694)">
     <use xlink:href="#DejaVuSans-73"/>
     <use x="52.099609" xlink:href="#DejaVuSans-65"/>
     <use x="113.623047" xlink:href="#DejaVuSans-6d"/>
     <use x="211.035156" xlink:href="#DejaVuSans-69"/>
     <use x="238.818359" xlink:href="#DejaVuSans-2d"/>
     <use x="274.902344" xlink:href="#DejaVuSans-73"/>
     <use x="327.001953" xlink:href="#DejaVuSans-77"/>
     <use x="408.789062" xlink:href="#DejaVuSans-65"/>
     <use x="470.3125" xlink:href="#DejaVuSans-65"/>
     <use x="531.835938" xlink:href="#DejaVuSans-74"/>
     <use x="571.044922" xlink:href="#DejaVuSans-20"/>
     <use x="602.832031" xlink:href="#DejaVuSans-63"/>
     <use x="657.8125" xlink:href="#DejaVuSans-68"/>
     <use x="721.191406" xlink:href="#DejaVuSans-6f"/>
     <use x="782.373047" xlink:href="#DejaVuSans-63"/>
     <use x="837.353516" xlink:href="#DejaVuSans-6f"/>
     <use x="898.535156" xlink:href="#DejaVuSans-6c"/>
     <use x="926.318359" xlink:href="#DejaVuSans-61"/>
     <use x="987.597656" xlink:href="#DejaVuSans-74"/>
     <use x="1026.806641" xlink:href="#DejaVuSans-65"/>
    </g>
   </g>
  </g>
 </g>
 <defs>
  <clipPath id="pd6e6fe1977">
   <rect height="266.112" width="357.12" x="57.6" y="41.472"/>
  </clipPath>
 </defs>
</svg>
